<svg width="325" height="310" viewBox="0 0 325 310" fill="none" xmlns="http://www.w3.org/2000/svg">
<g clip-path="url(#clip0_750_33489)">
<path d="M39.92 163.01C31.54 163.01 23.1 160.03 16.77 154.83C9.38 148.76 5.31 140.13 5.31 130.55L11.35 125.87C7.87 124.96 5.31 121.82 5.31 118.05V117.96L13.45 124.26L21.59 117.96C21.59 121.73 19.02 124.94 15.54 125.87L21.59 130.55C21.59 141.71 32.31 146.73 39.92 146.73C43.55 146.73 46.73 145.71 48.87 143.86C51.15 141.89 52.31 138.86 52.31 134.87V106.54C52.31 102.04 55.96 98.3999 60.45 98.3999C64.94 98.3999 68.59 102.04 68.59 106.54V134.87C68.59 151.43 56.8 163 39.92 163V163.01Z" fill="#171C21"/>
<path d="M312.61 309.95H47.19C45.59 309.95 44.28 308.65 44.28 307.04C44.28 305.43 45.58 304.13 47.19 304.13H312.61C314.22 304.13 315.52 305.43 315.52 307.04C315.52 308.65 314.22 309.95 312.61 309.95Z" fill="#000D40" fill-opacity="0.1"/>
<path d="M182.94 169.68H168.99V279.64H182.94V169.68Z" fill="#171C21"/>
<path d="M182.71 301.52C182.71 301.52 151.31 287.18 129.22 291.28C111.69 294.53 114.92 307.04 114.92 307.04H187.49" fill="#D9D9D9"/>
<path d="M168.1 281.22L166.67 297.99L177.86 307.04H187.49L182.33 278.68" fill="#D9D9D9"/>
<path d="M187.49 307.62H114.92C114.6 307.62 114.34 307.36 114.34 307.04C114.34 306.72 114.6 306.46 114.92 306.46H187.49C187.81 306.46 188.07 306.72 188.07 307.04C188.07 307.36 187.81 307.62 187.49 307.62Z" fill="#9C9B9B"/>
<path d="M183.82 286.5C183.82 286.5 183.75 286.5 183.71 286.5L167.52 285.47C166.56 285.41 165.83 284.58 165.89 283.62C165.95 282.66 166.78 281.92 167.74 281.99L183.93 283.02C184.89 283.08 185.62 283.91 185.56 284.87C185.5 285.79 184.73 286.5 183.82 286.5Z" fill="#B1B1B1"/>
<path d="M183.73 284.79C183.59 284.79 183.46 284.79 183.32 284.77L166.65 283.61C163.45 283.39 161.03 280.61 161.25 277.41C161.47 274.21 164.25 271.79 167.46 272.01L184.13 273.17C187.33 273.39 189.75 276.17 189.53 279.37C189.32 282.44 186.76 284.78 183.74 284.78L183.73 284.79Z" fill="#D9D9D9"/>
<path d="M217.44 169.68H203.49V279.64H217.44V169.68Z" fill="#171C21"/>
<path d="M218.38 301.52C218.38 301.52 185.82 287.18 163.72 291.28C146.19 294.53 149.42 307.04 149.42 307.04H221.99" fill="#C6C6C5"/>
<path d="M202.59 281.22L201.17 297.99L212.36 307.04H221.99L216.83 278.68" fill="#C6C6C5"/>
<path d="M218.32 286.5C218.32 286.5 218.25 286.5 218.21 286.5L202.02 285.47C201.06 285.41 200.33 284.58 200.39 283.62C200.45 282.66 201.27 281.92 202.24 281.99L218.43 283.02C219.39 283.08 220.12 283.91 220.06 284.87C220 285.79 219.23 286.5 218.32 286.5Z" fill="#A7A6A6"/>
<path d="M218.23 284.79C218.09 284.79 217.96 284.79 217.82 284.77L201.16 283.61C197.96 283.39 195.54 280.61 195.76 277.41C195.98 274.21 198.77 271.79 201.97 272.01L218.63 273.17C221.83 273.39 224.25 276.17 224.03 279.37C223.82 282.44 221.26 284.78 218.24 284.78L218.23 284.79Z" fill="#C6C6C5"/>
<path d="M221.99 307.62H149.42C149.1 307.62 148.84 307.36 148.84 307.04C148.84 306.72 149.1 306.46 149.42 306.46H221.99C222.31 306.46 222.57 306.72 222.57 307.04C222.57 307.36 222.31 307.62 221.99 307.62Z" fill="#9C9B9B"/>
<path d="M230.65 200.9H47.19V5.63L230.65 0V200.9Z" fill="url(#paint0_linear_750_33489)"/>
<path d="M88.75 62.01C88.48 62.01 88.21 61.93 87.96 61.78L79.82 56.55C79.14 56.12 78.95 55.22 79.38 54.54C79.81 53.87 80.71 53.67 81.39 54.1L89.53 59.33C90.21 59.76 90.4 60.66 89.97 61.34C89.69 61.77 89.22 62.01 88.75 62.01Z" fill="#006186"/>
<path d="M91.66 56.78C91.33 56.78 90.99 56.67 90.72 56.44L83.16 50.04C82.55 49.52 82.47 48.6 82.99 47.99C83.51 47.38 84.43 47.3 85.04 47.82L92.6 54.22C93.21 54.74 93.29 55.66 92.77 56.27C92.48 56.61 92.07 56.79 91.66 56.79V56.78Z" fill="#006186"/>
<path d="M106.35 44.74C94.95 44.74 85.71 57.51 85.71 73.27C85.71 81.08 87.98 88.16 91.66 93.31C96.55 91.5 106.74 88.78 123.43 89.04H123.54C125.71 84.51 126.98 79.1 126.98 73.27C126.98 57.51 117.74 44.74 106.34 44.74H106.35Z" fill="white"/>
<path d="M106.36 58.1499C99.72 58.1499 94.36 66.5299 94.36 76.8799C94.36 82.2299 95.81 87.0499 98.11 90.4599C102.71 89.6799 108.46 89.0999 115.47 89.0399C117.26 85.7699 118.36 81.5199 118.36 76.8799C118.36 66.5399 112.99 58.1499 106.36 58.1499Z" fill="#171C21"/>
<path d="M128.77 116.89C128.59 116.89 128.4 116.85 128.22 116.78C127.83 116.62 118.73 112.84 116.61 106.59C115.8 104.19 116.09 101.78 117.48 99.41C118.77 97.2 120.58 95.88 122.86 95.47C128.4 94.47 134.65 99.5 134.92 99.72C135.54 100.23 135.64 101.14 135.13 101.76C134.62 102.38 133.71 102.48 133.09 101.97C133.04 101.93 127.6 97.57 123.38 98.33C121.96 98.59 120.85 99.42 120 100.88C119.05 102.51 118.84 104.07 119.38 105.65C121.07 110.65 129.26 114.06 129.34 114.09C130.08 114.4 130.44 115.24 130.13 115.99C129.9 116.55 129.36 116.89 128.78 116.89H128.77Z" fill="#006186"/>
<path d="M82.36 33.8701C81.91 33.8701 81.47 33.7001 81.13 33.3601C80.45 32.6801 80.45 31.5701 81.13 30.8901C89.15 22.8701 97.72 21.0801 103.49 20.9901C109.78 20.9001 114.12 22.7101 114.3 22.7901C115.19 23.1701 115.6 24.1901 115.23 25.0801C114.85 25.9701 113.83 26.3801 112.95 26.0101C112.32 25.7501 97.28 19.6801 83.6 33.3601C83.26 33.7001 82.81 33.8701 82.37 33.8701H82.36Z" fill="#006186"/>
<path d="M134.09 142.9C116.04 142.9 108.7 122.78 108.63 122.57C108.36 121.81 108.76 120.98 109.51 120.72C110.26 120.46 111.1 120.85 111.37 121.6C111.44 121.79 118.48 141.03 135.45 139.95C154.64 138.76 158.77 119.89 158.81 119.7C158.97 118.91 159.74 118.4 160.53 118.57C161.32 118.73 161.82 119.5 161.66 120.29C161.62 120.5 157.01 141.53 135.63 142.86C135.11 142.89 134.59 142.91 134.09 142.91V142.9Z" fill="#006186"/>
<path d="M88.17 96.0201C87.77 96.0201 87.38 95.8101 87.17 95.4501C86.84 94.9001 87.03 94.1901 87.58 93.8601C88.02 93.6001 98.61 87.5001 123.46 87.8801C124.1 87.8901 124.61 88.4201 124.6 89.0601C124.59 89.7001 124.07 90.2001 123.44 90.2001H123.42C99.31 89.8101 88.86 95.7901 88.76 95.8501C88.58 95.9601 88.37 96.0101 88.17 96.0101V96.0201Z" fill="#006186"/>
<path d="M184.11 62.01C183.63 62.01 183.16 61.77 182.89 61.34C182.46 60.66 182.65 59.76 183.33 59.33L191.47 54.1C192.15 53.66 193.04 53.86 193.48 54.54C193.91 55.22 193.72 56.12 193.04 56.55L184.9 61.78C184.66 61.94 184.38 62.01 184.11 62.01Z" fill="#006186"/>
<path d="M181.21 56.78C180.8 56.78 180.39 56.61 180.1 56.27C179.58 55.66 179.66 54.74 180.27 54.22L187.83 47.82C188.44 47.3 189.36 47.38 189.88 47.99C190.4 48.6 190.32 49.52 189.71 50.04L182.15 56.44C181.88 56.67 181.54 56.78 181.21 56.78Z" fill="#006186"/>
<path d="M166.51 44.74C155.11 44.74 145.87 57.51 145.87 73.27C145.87 79.1 147.14 84.52 149.31 89.03H149.42C166.12 88.78 176.31 91.5 181.19 93.31C184.87 88.16 187.14 81.08 187.14 73.27C187.14 57.51 177.9 44.73 166.51 44.73V44.74Z" fill="white"/>
<path d="M164.68 58.1499C158.05 58.1499 152.68 66.5299 152.68 76.8799C152.68 81.6199 153.82 85.9299 155.67 89.2299C162.63 89.6199 168.08 90.5399 172.14 91.5199C174.9 88.0899 176.67 82.8099 176.67 76.8699C176.67 66.5299 171.3 58.1399 164.67 58.1399L164.68 58.1499Z" fill="#171C21"/>
<path d="M190.51 30.8701C190.06 30.8701 189.62 30.7001 189.28 30.3601C175.57 16.6501 157.67 23.7101 156.92 24.0201C156.03 24.3801 155.01 23.9601 154.65 23.0601C154.29 22.1701 154.71 21.1501 155.6 20.7901C155.81 20.7101 176.38 12.5201 191.75 27.8901C192.43 28.5701 192.43 29.6701 191.75 30.3601C191.41 30.7001 190.96 30.8701 190.52 30.8701H190.51Z" fill="#006186"/>
<path d="M184.69 96.0201C184.49 96.0201 184.29 95.9701 184.1 95.8601C184 95.8001 173.54 89.8301 149.43 90.2101H149.41C148.78 90.2101 148.26 89.7001 148.25 89.0701C148.25 88.4301 148.75 87.9001 149.4 87.8901C174.25 87.4901 184.84 93.6101 185.28 93.8701C185.83 94.2001 186.02 94.9101 185.69 95.4601C185.47 95.8301 185.09 96.0301 184.69 96.0301V96.0201Z" fill="#006186"/>
<path opacity="0.5" d="M134.45 152.69C129.81 152.69 126.82 151.24 126.6 151.13C126.03 150.84 125.79 150.14 126.08 149.57C126.37 149 127.06 148.77 127.64 149.05C128 149.23 136.54 153.29 147.42 146.21C147.96 145.86 148.68 146.01 149.03 146.55C149.38 147.09 149.23 147.81 148.69 148.16C143.24 151.7 138.28 152.69 134.45 152.69Z" fill="#006186"/>
<path d="M56.77 34.97C55.81 34.97 55.03 34.19 55.03 33.23V16.02C55.03 15.06 55.81 14.28 56.77 14.28C57.73 14.28 58.51 15.06 58.51 16.02V33.23C58.51 34.19 57.73 34.97 56.77 34.97Z" fill="white"/>
<path d="M56.77 90.79C55.81 90.79 55.03 90.01 55.03 89.05V41.95C55.03 40.99 55.81 40.21 56.77 40.21C57.73 40.21 58.51 40.99 58.51 41.95V89.05C58.51 90.01 57.73 90.79 56.77 90.79Z" fill="white"/>
<path d="M324.24 200.9H230.65V0L324.24 7.63V200.9Z" fill="#2C90C9"/>
<path d="M27.34 120.86H3.27V128.12H27.34V120.86Z" fill="#D9D9D9"/>
<path d="M24.81 133.22H5.81C2.6 133.22 0 130.62 0 127.41C0 124.2 2.6 121.6 5.81 121.6H24.81C28.02 121.6 30.62 124.2 30.62 127.41C30.62 130.62 28.02 133.22 24.81 133.22Z" fill="#D9D9D9"/>
<path d="M27.4 122.38H5.9C5.62 122.38 5.4 122.16 5.4 121.88C5.4 121.6 5.62 121.38 5.9 121.38H27.4C27.68 121.38 27.9 121.6 27.9 121.88C27.9 122.16 27.68 122.38 27.4 122.38Z" fill="#B1B1B1"/>
<path d="M250 162.6C248.6 162.6 247.23 162.49 245.88 162.28C234.15 160.4 222.31 149.85 222.31 130.55L228.35 125.87C224.87 124.96 222.31 121.82 222.31 118.05V117.96L230.45 124.26L238.59 117.96C238.59 121.73 236.02 124.94 232.54 125.87L238.59 130.55C238.59 139.1 242.47 145.24 248.46 146.2C256.12 147.43 262.15 140.12 264.72 132.33C266.71 126.3 268.75 111 269.36 105.62C269.87 101.15 273.91 97.9499 278.38 98.4599C282.85 98.9699 286.05 103.01 285.54 107.47C285.29 109.62 283.05 128.74 280.18 137.42C274.33 155.17 261.46 162.59 250 162.59V162.6Z" fill="#171C21"/>
<path d="M220.55 117.79V128.22C220.55 128.22 219.15 129.42 227.58 130.02C236.01 130.62 241.02 123.8 241.02 123.8L220.55 117.78V117.79Z" fill="#B3B1B2"/>
<path d="M222.5 58.6199C222.5 58.6199 213.67 54.7999 208.12 59.1799C202.56 63.5599 202.91 70.5199 205.97 72.3999C209.03 74.2799 214.38 74.0399 214.38 74.0399L216.8 76.5699L214.44 79.8899C214.44 79.8899 210.99 75.0599 204.54 73.3599C198.09 71.6699 194.68 75.0099 194.26 76.5299C193.84 78.0499 193.11 81.4599 195.86 84.2799C198.61 87.0999 202.63 86.4499 204.98 94.0199C207.34 101.59 208.16 108.58 208.16 108.58C208.16 108.58 209.24 114.24 213.52 117.21C217.8 120.17 222.58 124.38 228.05 125.63C233.52 126.88 239.51 124.66 241.27 121.64C243.03 118.62 245.92 111.49 246.23 105.27C246.54 99.0599 244.19 88.9199 241.56 86.0199C238.93 83.1199 235.63 81.2899 235.63 81.2899C235.63 81.2899 235.51 78.6099 233.62 77.5499C231.73 76.4899 230.45 74.1599 230.45 74.1599C230.45 74.1599 232.32 64.2099 227.05 61.2799C221.78 58.3499 222.49 58.6299 222.49 58.6299L222.5 58.6199Z" fill="#E5E5E5"/>
<path d="M28.16 72.9599C28.16 72.9599 35.95 70.6599 37.01 71.1899C38.07 71.7199 107.74 104.22 108.85 104.3C109.96 104.38 201.46 80.7499 202.83 80.6099C204.2 80.4699 209.23 84.0999 209.23 84.0999C209.23 84.0999 121.35 141.38 120.51 141.73C119.67 142.09 50.67 106.75 50.67 106.75L28.15 72.9499L28.16 72.9599Z" fill="white"/>
<path d="M26.59 72.1999C26.59 72.1999 100.2 108.2 108.68 109.52C117.16 110.84 210.02 81.2799 211.87 83.0599C213.72 84.8299 221.85 190.38 221.69 192.84C221.53 195.3 128.71 217.45 124.8 217.18C120.89 216.91 48.17 183.53 47.96 178.62C47.75 173.72 26.59 72.1899 26.59 72.1899V72.1999Z" fill="#2459D1"/>
<path d="M122.92 208.69C122.46 208.66 122.07 208.38 122.02 208.02L109.95 118.1C109.9 117.7 110.28 117.36 110.8 117.33C111.33 117.31 111.79 117.6 111.84 118L123.91 207.92C123.96 208.32 123.58 208.66 123.06 208.69C123.01 208.69 122.97 208.69 122.92 208.69Z" fill="#000D59"/>
<path d="M145.41 130.74C144.65 130.69 143.96 130.3 143.7 129.72C143.36 128.96 143.89 128.16 144.89 127.93L184.96 118.67C185.96 118.44 187.03 118.87 187.37 119.63C187.71 120.39 187.18 121.19 186.18 121.42L146.11 130.68C145.88 130.73 145.64 130.75 145.41 130.74Z" fill="#000D59"/>
<path d="M147.36 140.6C146.6 140.55 145.91 140.16 145.65 139.58C145.31 138.82 145.84 138.02 146.84 137.79L186.91 128.53C187.91 128.3 188.98 128.73 189.32 129.49C189.66 130.25 189.13 131.05 188.13 131.28L148.06 140.54C147.83 140.59 147.59 140.61 147.36 140.6Z" fill="#000D59"/>
<path d="M240.34 133.22H223.35C220.14 133.22 217.54 130.62 217.54 127.41C217.54 124.2 220.14 121.6 223.35 121.6H240.34C243.55 121.6 246.15 124.2 246.15 127.41C246.15 130.62 243.55 133.22 240.34 133.22Z" fill="white"/>
<path d="M240.26 122.38H218.76C218.48 122.38 218.26 122.16 218.26 121.88C218.26 121.6 218.48 121.38 218.76 121.38H240.26C240.54 121.38 240.76 121.6 240.76 121.88C240.76 122.16 240.54 122.38 240.26 122.38Z" fill="#B1B1B1"/>
<path d="M225.61 117.74L221.47 96.6399C221.42 96.3699 221.59 96.1099 221.86 96.0499C222.13 95.9899 222.39 96.1699 222.45 96.4399L223.33 100.94L226.58 117.53C226.63 117.8 226.46 118.06 226.19 118.12C225.92 118.18 225.66 118 225.6 117.73L225.61 117.74Z" fill="#B1B1B1"/>
<path d="M229 107.09C235.108 107.09 240.06 99.6401 240.06 90.4501C240.06 81.26 235.108 73.8101 229 73.8101C222.892 73.8101 217.94 81.26 217.94 90.4501C217.94 99.6401 222.892 107.09 229 107.09Z" fill="#EFEFEF"/>
<path d="M235.1 115.64C241.208 115.64 246.16 108.19 246.16 99.0001C246.16 89.8101 241.208 82.3601 235.1 82.3601C228.992 82.3601 224.04 89.8101 224.04 99.0001C224.04 108.19 228.992 115.64 235.1 115.64Z" fill="white"/>
<path d="M229 121.02C229 121.02 233.2 120.39 235.09 115.64C236.98 110.89 236.65 101.99 236.65 101.99L246.05 96.8101C246.05 96.8101 248.67 103.25 244.98 112.43C241.29 121.61 240.26 121.37 240.26 121.37L229 121.02Z" fill="white"/>
<path d="M27.6 117.79V128.22C27.6 128.22 27 129.42 18.57 130.02C10.14 130.62 5.13 123.8 5.13 123.8L27.6 117.78V117.79Z" fill="#B3B1B2"/>
<path d="M36.98 90.7701C36.88 90.7701 36.78 90.7701 36.68 90.7701L17.42 89.7701C14.32 89.6101 11.94 86.9701 12.1 83.8701C12.26 80.7701 14.9 78.3901 18 78.5501L37.26 79.5501C40.36 79.7101 42.74 82.3501 42.58 85.4501C42.42 88.4501 39.94 90.7801 36.98 90.7801V90.7701Z" fill="#D9D9D9"/>
<path d="M38.98 101.4H16.11C13.01 101.4 10.49 98.8899 10.49 95.7799C10.49 92.6699 13.01 90.1599 16.11 90.1599H38.97C42.07 90.1599 44.59 92.6699 44.59 95.7799C44.59 98.8899 42.08 101.4 38.97 101.4H38.98Z" fill="#D9D9D9"/>
<path d="M37.58 112.44C37.36 112.44 37.13 112.43 36.91 112.4L15.05 109.79C11.97 109.42 9.77 106.63 10.14 103.55C10.51 100.47 13.31 98.2599 16.38 98.6399L38.24 101.25C41.32 101.62 43.52 104.41 43.15 107.49C42.81 110.35 40.39 112.44 37.58 112.44Z" fill="#D9D9D9"/>
<path d="M34.77 122.27C34.58 122.27 34.38 122.26 34.19 122.24L14.74 120.23C11.65 119.91 9.41 117.15 9.73 114.07C10.05 110.99 12.81 108.75 15.89 109.06L35.34 111.07C38.43 111.39 40.67 114.15 40.35 117.23C40.05 120.12 37.61 122.27 34.77 122.27Z" fill="#D9D9D9"/>
<path d="M13.11 100.15C9.24 100.15 6.11 97.02 6.11 93.15V66.29C6.11 62.42 9.24 59.29 13.11 59.29C16.98 59.29 20.11 62.42 20.11 66.29V93.15C20.11 97.02 16.98 100.15 13.11 100.15Z" fill="#D9D9D9"/>
<path d="M21.33 78.9399C4.09 78.2199 -0.34 101.81 2.07 118.25C4.48 134.7 27.35 131.89 28.15 118.65C28.95 105.41 30.96 79.3299 21.33 78.9299V78.9399Z" fill="#D9D9D9"/>
<path d="M16.48 79.5399C16.21 79.5399 15.99 79.3199 15.98 79.0499C15.98 78.7699 16.19 78.5499 16.47 78.5399L21.32 78.4299H21.33C21.6 78.4299 21.82 78.6499 21.83 78.9199C21.83 79.1999 21.62 79.4199 21.34 79.4299L16.49 79.5399H16.48Z" fill="#B1B1B1"/>
<path d="M4.73 118.79C4.48 118.79 4.26 118.6 4.23 118.35C2.09 100.77 7.27 90.9101 7.98 89.6601C7.98 87.0101 7.96 84.5101 7.94 82.1901C7.84 69.8101 7.78 62.9901 10.8 61.8301C11.06 61.7301 11.35 61.8601 11.45 62.1201C11.55 62.3801 11.42 62.6701 11.16 62.7701C8.78 63.6801 8.85 71.4501 8.94 82.1901C8.96 84.5501 8.98 87.0901 8.98 89.8001C8.98 89.8901 8.96 89.9801 8.91 90.0601C8.85 90.1601 3.03 100.16 5.23 118.24C5.26 118.51 5.07 118.76 4.79 118.8C4.77 118.8 4.75 118.8 4.73 118.8V118.79Z" fill="white"/>
</g>
<defs>
<linearGradient id="paint0_linear_750_33489" x1="47.19" y1="100.45" x2="230.65" y2="100.45" gradientUnits="userSpaceOnUse">
<stop stop-color="#86C7AC"/>
<stop offset="0.24" stop-color="#80C4B1"/>
<stop offset="0.55" stop-color="#70BDC1"/>
<stop offset="0.9" stop-color="#55B1DA"/>
<stop offset="1" stop-color="#4CADE2"/>
</linearGradient>
<clipPath id="clip0_750_33489">
<rect width="324.24" height="309.95" fill="white"/>
</clipPath>
</defs>
</svg>
