<svg width="423" height="149" viewBox="0 0 423 149" fill="none" xmlns="http://www.w3.org/2000/svg">
<g clip-path="url(#clip0_1638_188350)">
<path d="M329.338 140.972L334.498 85.0074C334.498 83.3348 335.871 81.9912 337.556 81.9912H401.464C403.149 81.9912 404.55 83.3348 404.55 85.0074L399.363 140.972H329.343H329.338Z" fill="#EA5958"/>
<path d="M204.505 122.386H220.006C222.189 122.386 223.841 123.022 224.924 124.273C225.225 124.618 225.477 125.019 225.696 125.457H235.03C233.564 118.235 227.797 113.458 220.006 113.458H204.505C202.042 113.458 200.051 115.46 200.051 117.922C200.051 120.385 202.048 122.386 204.505 122.386Z" fill="#171C21"/>
<path d="M233.192 100.713C236.672 103.708 239.118 107.958 239.889 112.383C240.797 117.549 239.413 122.595 236.004 126.581L231.83 126.368C232.951 127.991 232.896 130.212 231.55 131.78L231.518 131.819L230.38 126.291L224.755 126.006C226.101 124.437 228.306 124.015 230.084 124.87L229.236 120.763C233.214 116.118 230.549 110.201 227.387 107.481C225.876 106.186 224.197 105.474 222.648 105.479C220.996 105.485 219.436 106.329 218.019 107.991L207.93 119.787C206.327 121.657 203.514 121.876 201.648 120.269C199.783 118.663 199.564 115.844 201.167 113.974L211.257 102.178C217.155 95.2843 226.172 94.6756 233.186 100.702L233.192 100.713Z" fill="#171C21"/>
<path d="M320.507 143.746H220.126V36.6605L320.507 33.573V143.746Z" fill="url(#paint0_linear_1638_188350)"/>
<path d="M242.866 67.5792C242.718 67.5792 242.57 67.5354 242.433 67.4531L237.98 64.585C237.607 64.3492 237.504 63.8556 237.739 63.4827C237.974 63.1153 238.467 63.0056 238.839 63.2414L243.292 66.1095C243.664 66.3453 243.768 66.8389 243.533 67.2118C243.38 67.4476 243.123 67.5792 242.866 67.5792Z" fill="#006186"/>
<path d="M244.458 64.7055C244.277 64.7055 244.091 64.6452 243.944 64.5191L239.807 61.0093C239.473 60.7242 239.43 60.2196 239.714 59.8851C239.999 59.5506 240.502 59.5067 240.836 59.7919L244.972 63.3016C245.306 63.5868 245.35 64.0913 245.065 64.4259C244.907 64.6123 244.682 64.711 244.458 64.711V64.7055Z" fill="#006186"/>
<path d="M252.496 58.1084C246.258 58.1084 241.202 65.1115 241.202 73.7542C241.202 78.0372 242.444 81.9199 244.458 84.7441C247.133 83.7515 252.709 82.2599 261.841 82.4025H261.901C263.088 79.9182 263.783 76.9514 263.783 73.7542C263.783 65.1115 258.728 58.1084 252.49 58.1084H252.496Z" fill="white"/>
<path d="M250.225 65.457C246.592 65.457 243.659 70.0526 243.659 75.7285C243.659 78.6625 244.983 82.4684 246.247 84.3384C248.764 83.9107 251.379 82.43 255.209 82.4026C256.189 80.6093 256.791 78.2786 256.791 75.734C256.791 70.0636 253.853 65.4625 250.225 65.4625V65.457Z" fill="#171C21"/>
<path d="M264.763 97.6754C264.664 97.6754 264.56 97.6535 264.462 97.6151C264.248 97.5274 259.269 95.4544 258.109 92.0269C257.666 90.7108 257.825 89.3891 258.585 88.0894C259.291 86.8775 260.282 86.1536 261.529 85.9287C264.56 85.3803 267.98 88.1388 268.128 88.2594C268.467 88.5391 268.522 89.0382 268.243 89.3782C267.964 89.7182 267.466 89.773 267.126 89.4933C267.099 89.4714 264.123 87.0804 261.814 87.4972C261.037 87.6397 260.429 88.0949 259.964 88.8956C259.444 89.7895 259.33 90.645 259.625 91.5114C260.55 94.2534 265.031 96.1235 265.075 96.1399C265.48 96.3099 265.677 96.7706 265.507 97.1819C265.381 97.489 265.086 97.6754 264.768 97.6754H264.763Z" fill="#006186"/>
<path d="M239.369 52.1472C239.123 52.1472 238.882 52.054 238.696 51.8675C238.324 51.4946 238.324 50.8859 238.696 50.513C243.084 46.1148 247.774 45.1332 250.931 45.0838C254.372 45.0345 256.747 46.0271 256.845 46.0709C257.332 46.2793 257.557 46.8387 257.354 47.3268C257.146 47.8148 256.588 48.0397 256.107 47.8368C255.762 47.6942 247.533 44.3654 240.048 51.8675C239.862 52.054 239.616 52.1472 239.375 52.1472H239.369Z" fill="#006186"/>
<path d="M242.548 86.2301C242.329 86.2301 242.116 86.115 242.001 85.9176C241.821 85.6159 241.925 85.2266 242.225 85.0456C242.466 84.903 248.261 81.5578 261.857 81.7662C262.208 81.7717 262.487 82.0623 262.481 82.4133C262.476 82.7643 262.191 83.0385 261.846 83.0385H261.836C248.644 82.8246 242.926 86.104 242.871 86.1369C242.773 86.1972 242.658 86.2247 242.548 86.2247V86.2301Z" fill="#006186"/>
<path d="M295.042 67.5791C294.78 67.5791 294.523 67.4475 294.375 67.2117C294.14 66.8388 294.243 66.3452 294.616 66.1094L299.069 63.2413C299.441 63 299.928 63.1097 300.169 63.4826C300.404 63.8555 300.3 64.349 299.928 64.5848L295.475 67.453C295.343 67.5407 295.19 67.5791 295.042 67.5791Z" fill="#006186"/>
<path d="M293.45 64.7055C293.226 64.7055 293.001 64.6123 292.843 64.4259C292.558 64.0913 292.602 63.5868 292.936 63.3016L297.072 59.7919C297.406 59.5067 297.909 59.5506 298.194 59.8851C298.478 60.2196 298.435 60.7242 298.101 61.0093L293.964 64.5191C293.817 64.6452 293.631 64.7055 293.45 64.7055Z" fill="#006186"/>
<path d="M285.412 58.1083C279.175 58.1083 274.119 65.1113 274.119 73.7541C274.119 76.9513 274.814 79.9236 276.001 82.3969H276.062C285.199 82.2598 290.775 83.7514 293.445 84.744C295.458 81.9197 296.7 78.0371 296.7 73.7541C296.7 65.1113 291.645 58.1028 285.412 58.1028V58.1083Z" fill="white"/>
<path d="M283.24 65.4569C279.613 65.4569 276.674 70.0525 276.674 75.7284C276.674 78.3278 277.298 80.6914 278.31 82.5011C282.119 82.715 285.101 83.2195 287.322 83.757C288.832 81.876 289.801 78.9804 289.801 75.7229C289.801 70.0525 286.862 65.4514 283.235 65.4514L283.24 65.4569Z" fill="#171C21"/>
<path d="M298.544 50.5019C298.298 50.5019 298.057 50.4087 297.871 50.2223C290.37 42.7037 280.576 46.5754 280.165 46.7454C279.678 46.9428 279.12 46.7125 278.923 46.2189C278.726 45.7309 278.956 45.1715 279.443 44.9741C279.558 44.9302 290.813 40.4388 299.223 48.8677C299.595 49.2406 299.595 49.8439 299.223 50.2223C299.037 50.4087 298.79 50.5019 298.55 50.5019H298.544Z" fill="#006186"/>
<path d="M295.36 86.2303C295.25 86.2303 295.141 86.2028 295.037 86.1425C294.982 86.1096 289.259 82.8357 276.067 83.0441H276.056C275.711 83.0441 275.427 82.7644 275.421 82.4189C275.421 82.0679 275.695 81.7773 276.051 81.7718C289.647 81.5524 295.442 84.9086 295.683 85.0512C295.983 85.2322 296.087 85.6215 295.907 85.9231C295.786 86.1261 295.579 86.2357 295.36 86.2357V86.2303Z" fill="#006186"/>
<path opacity="0.5" d="M267.871 117.308C265.332 117.308 263.696 116.513 263.575 116.453C263.264 116.293 263.132 115.91 263.291 115.597C263.45 115.284 263.827 115.158 264.145 115.312C264.341 115.411 269.014 117.637 274.967 113.754C275.263 113.562 275.657 113.645 275.848 113.941C276.04 114.237 275.958 114.632 275.662 114.824C272.68 116.765 269.966 117.308 267.871 117.308Z" fill="#006186"/>
<path d="M225.368 52.7504C224.842 52.7504 224.416 52.3227 224.416 51.7962V42.3583C224.416 41.8318 224.842 41.4041 225.368 41.4041C225.893 41.4041 226.32 41.8318 226.32 42.3583V51.7962C226.32 52.3227 225.893 52.7504 225.368 52.7504Z" fill="white"/>
<path d="M225.368 83.362C224.842 83.362 224.416 82.9343 224.416 82.4078V56.5782C224.416 56.0518 224.842 55.624 225.368 55.624C225.893 55.624 226.32 56.0518 226.32 56.5782V82.4078C226.32 82.9343 225.893 83.362 225.368 83.362Z" fill="white"/>
<path d="M371.715 143.746H320.507V33.573L371.715 37.7573V143.746Z" fill="#2C90C9"/>
<path d="M216.602 110.458H212.63V123.658H216.602V110.458Z" fill="#D9D9D9"/>
<path d="M218.282 123.801H212.575C212.575 123.801 211.919 123.472 211.59 118.849C211.262 114.226 214.994 111.479 214.994 111.479L218.287 123.801H218.282Z" fill="#B3B1B2"/>
<path d="M233.061 128.945C233.061 128.89 233.061 128.835 233.061 128.78L233.608 118.218C233.695 116.518 235.14 115.213 236.836 115.301C238.532 115.389 239.834 116.836 239.747 118.536L239.2 129.099C239.112 130.799 237.668 132.104 235.971 132.016C234.33 131.928 233.055 130.568 233.055 128.945H233.061Z" fill="#D9D9D9"/>
<path d="M227.244 130.036V117.5C227.244 115.8 228.618 114.418 230.319 114.418C232.021 114.418 233.394 115.8 233.394 117.5V130.036C233.394 131.736 232.021 133.118 230.319 133.118C228.618 133.118 227.244 131.742 227.244 130.036Z" fill="#D9D9D9"/>
<path d="M221.204 129.274C221.204 129.153 221.209 129.027 221.226 128.907L222.654 116.919C222.856 115.229 224.383 114.023 226.068 114.226C227.753 114.429 228.962 115.964 228.755 117.648L227.326 129.636C227.124 131.325 225.597 132.531 223.912 132.329C222.347 132.142 221.204 130.815 221.204 129.274Z" fill="#D9D9D9"/>
<path d="M215.825 127.733C215.825 127.629 215.831 127.519 215.842 127.415L216.941 116.749C217.117 115.054 218.627 113.826 220.312 114.001C221.997 114.177 223.223 115.69 223.053 117.379L221.953 128.046C221.778 129.74 220.268 130.969 218.583 130.793C217.002 130.629 215.825 129.29 215.825 127.733Z" fill="#D9D9D9"/>
<path d="M239.533 120.362C239.927 110.908 227.02 108.484 218.019 109.8C209.019 111.122 210.556 123.664 217.8 124.102C225.045 124.541 239.315 125.643 239.533 120.362Z" fill="#D9D9D9"/>
<path d="M209.834 122.271V111.857C209.834 110.096 211.257 108.671 213.013 108.671C214.769 108.671 216.192 110.096 216.192 111.857V122.271C216.192 124.031 214.769 125.457 213.013 125.457C211.257 125.457 209.834 124.031 209.834 122.271Z" fill="#D9D9D9"/>
<path d="M239.205 117.703C239.205 117.555 239.326 117.434 239.473 117.428C239.626 117.428 239.747 117.544 239.752 117.697L239.813 120.357C239.813 120.51 239.692 120.631 239.544 120.637C239.391 120.637 239.271 120.521 239.265 120.368L239.205 117.708V117.703Z" fill="#B1B1B1"/>
<path d="M215.765 123.686V111.895C215.765 111.742 215.885 111.621 216.039 111.621C216.192 111.621 216.312 111.742 216.312 111.895V123.686C216.312 123.839 216.192 123.96 216.039 123.96C215.885 123.96 215.765 123.839 215.765 123.686Z" fill="#B1B1B1"/>
<path d="M0 133.261H423V149H0V133.261Z" fill="#F9B233"/>
<path d="M26.8598 141.761H267.706C269.332 141.761 270.688 140.39 270.688 138.745C270.688 137.1 269.332 135.729 267.706 135.729H26.8598C25.2348 135.729 23.8778 137.1 23.8778 138.745C23.8778 140.39 25.2348 141.761 26.8598 141.761Z" fill="#F18700"/>
<path d="M22.6796 130.025C22.6796 135.509 27.0185 137.538 32.3916 137.538H255.828C261.201 137.538 265.54 135.509 265.54 130.025" fill="#68848E"/>
<path d="M78.5113 129.422H265.54V130.629H78.5113V129.422Z" fill="white"/>
<path d="M13.3451 121.69C13.3451 129.258 19.3693 135.4 26.7996 135.4H196.412C203.848 135.4 209.867 129.258 209.867 121.69V13.71C209.867 6.14207 203.843 0 196.412 0H26.8598C19.424 0 13.4053 6.14207 13.4053 13.71V121.69H13.3506H13.3451Z" fill="#86A4B2"/>
<path d="M46.065 101.728C46.065 104.415 48.1825 106.554 50.8416 106.554H79.3812C81.9857 106.554 84.1579 104.415 84.1579 101.728V96.9021C84.1579 94.2149 82.0404 92.0762 79.3812 92.0762H50.8416C48.2372 92.0762 46.065 94.2149 46.065 96.9021V101.728Z" fill="white"/>
<path d="M158.976 79.7372L159.627 80.3953L158.757 81.2727L154.796 77.2146L155.666 76.3372L157.674 78.3662C158.544 79.2985 159.463 78.8598 160.005 78.2566L160.929 79.1888C160.442 79.7372 159.736 80.0114 158.976 79.7372Z" fill="#181C21"/>
<path d="M161.039 70.908L161.258 74.8016L164.945 75.021L163.917 76.0629L160.606 75.8435L163.971 79.2436L163.101 80.1211L157.57 74.4726L158.44 73.5951L160.284 75.4597L160.065 71.9499L161.039 70.908Z" fill="#181C21"/>
<path d="M166.461 65.3691L172.266 71.237L171.396 72.1144L165.591 66.2466L166.461 65.3691Z" fill="#181C21"/>
<path d="M149.97 88.5665C149.97 88.5665 149.97 88.5117 149.97 88.5665V88.5665ZM149.915 88.3472V88.2923C149.86 88.2923 149.915 88.2923 149.915 88.3472ZM149.806 88.1278L149.751 88.073L149.806 88.1278ZM149.696 87.9633C149.696 87.9633 149.641 87.9084 149.641 87.8536C149.641 87.8901 149.66 87.9267 149.696 87.9633ZM149.532 87.7439C149.532 87.7439 149.423 87.6342 149.423 87.5794C149.477 87.6891 149.532 87.7439 149.532 87.7439ZM149.532 82.6438L151.918 85.0568C152.842 85.989 152.842 87.5246 151.918 88.4568C151.431 88.9504 150.779 89.1698 150.128 89.1698C150.183 89.8278 149.909 90.4859 149.423 91.0343C148.498 91.9666 146.982 91.9666 146.058 91.0343L143.672 88.6214L144.542 87.7439L146.927 90.1569C147.36 90.5956 148.12 90.5956 148.553 90.1569C148.985 89.7181 148.985 88.9504 148.553 88.5117L146.167 86.0987L147.037 85.2213L149.423 87.6342C149.855 88.073 150.615 88.073 151.048 87.6342C151.48 87.1955 151.48 86.4278 151.048 85.989L148.662 83.5761L149.532 82.6438Z" fill="#181C21"/>
<path d="M156.59 80.1212C157.406 81.2728 157.296 82.9728 156.267 84.0148C155.239 85.0568 153.608 85.1664 152.415 84.3438C152.361 84.289 152.306 84.2342 152.251 84.2342L152.087 84.0696L151.978 83.96C151.978 83.96 151.923 83.9051 151.923 83.8503C151.868 83.7954 151.814 83.6858 151.759 83.6309C150.998 82.4793 151.108 80.8341 152.136 79.7921C152.842 79.0792 153.871 78.7502 154.796 78.9695L154.522 80.0663C153.98 79.9566 153.384 80.176 152.946 80.6147C152.35 81.218 152.24 82.0954 152.623 82.8083L155.934 79.4083C155.934 79.4083 156.043 79.4631 156.043 79.5179L156.153 79.6276L156.262 79.7373L156.426 79.9018C156.481 79.9566 156.536 80.0663 156.59 80.1212ZM155.83 80.9438L153.28 83.5212C153.986 83.96 154.905 83.8503 155.507 83.1922C156.158 82.589 156.213 81.6567 155.835 80.9438" fill="#181C21"/>
<path d="M167.386 69.1531C168.201 70.3047 168.091 72.0047 167.063 73.0467C166.034 74.0886 164.404 74.1983 163.211 73.3757L163.047 73.2112L162.883 73.0467L162.773 72.937C162.773 72.937 162.718 72.8822 162.718 72.8273C162.664 72.7725 162.609 72.6628 162.554 72.608C161.794 71.4563 161.903 69.8111 162.932 68.7692C163.638 68.0563 164.666 67.7272 165.591 67.9466L165.317 69.0434C164.776 68.9337 164.179 69.1531 163.742 69.5918C163.145 70.195 163.036 71.0725 163.419 71.7854L166.729 68.3853C166.729 68.3853 166.838 68.4401 166.838 68.495C166.838 68.495 166.948 68.5498 166.948 68.6047L167.057 68.7143L167.221 68.8789C167.276 69.0434 167.331 69.0982 167.386 69.1531ZM166.57 69.9757L164.021 72.5531C164.726 72.9919 165.646 72.8822 166.248 72.2241C166.899 71.6209 166.953 70.6886 166.576 69.9757" fill="#181C21"/>
<path d="M168.797 63.1755C168.091 62.8464 167.386 62.8464 166.844 63.3948L166.029 62.5722C166.899 61.5851 168.037 61.4206 169.448 62.0787L175.09 64.711L174.165 65.6433L170.258 63.7239L171.938 67.8917L171.013 68.824" fill="#181C21"/>
<path d="M132.767 114.341C135.481 114.341 138.25 113.299 140.307 111.16L175.899 74.9112C180.08 70.6886 180.08 63.7787 175.899 59.5012C171.719 55.2786 164.94 55.2786 160.76 59.5012L125.167 95.7504C120.987 100.028 120.987 106.883 125.167 111.16C127.285 113.299 129.999 114.341 132.762 114.341H132.767Z" fill="white"/>
<path d="M138.25 104.306C140.001 106.044 140.001 108.874 138.25 110.612C136.499 112.351 133.599 112.351 131.848 110.612C130.097 108.874 130.097 106.044 131.848 104.306C133.599 102.567 136.499 102.567 138.25 104.306Z" fill="#F7C22E"/>
<path d="M144.651 97.9989C146.402 99.7373 146.402 102.567 144.651 104.305C142.9 106.044 140.001 106.044 138.25 104.305C136.499 102.567 136.499 99.7373 138.25 97.9989C140.001 96.2605 142.9 96.2605 144.651 97.9989Z" fill="#ED475C"/>
<path d="M125.446 97.9989C127.197 96.2605 130.097 96.2605 131.848 97.9989C133.599 99.7373 133.599 102.567 131.848 104.305C130.097 106.044 127.197 106.044 125.446 104.305C123.695 102.567 123.695 99.7373 125.446 97.9989Z" fill="#39B07D"/>
<path d="M131.848 91.6922C133.599 89.9538 136.499 89.9538 138.25 91.6922C140.001 93.4307 140.001 96.2604 138.25 97.9988C136.499 99.7373 133.599 99.7373 131.848 97.9988C130.097 96.2604 130.097 93.4307 131.848 91.6922Z" fill="#2459D1"/>
<path d="M146.063 92.7892C146.495 92.7892 146.988 92.6247 147.311 92.2408L173.136 65.9725C173.842 65.2596 173.842 64.108 173.136 63.395C172.43 62.6821 171.292 62.6821 170.641 63.395L144.816 89.6634C144.11 90.3763 144.11 91.5279 144.816 92.2408C145.138 92.6247 145.576 92.7892 146.063 92.7892Z" fill="#2A3038"/>
<path d="M56.1545 65.6434C58.8684 65.6434 61.637 64.6015 63.6943 62.4627C67.8746 58.2401 67.8746 51.3302 63.6943 47.0527L44.9214 27.9136C40.7412 23.6909 33.9619 23.6909 29.7816 27.9136C25.6014 32.1363 25.6014 39.0461 29.7816 43.3236L48.5545 62.4627C50.672 64.6015 53.3859 65.6434 56.149 65.6434H56.1545Z" fill="white"/>
<path d="M56.1545 56.5949C56.5868 56.5949 57.0792 56.4303 57.402 56.0465C58.1079 55.3335 58.1079 54.1819 57.402 53.469L38.6291 34.3299C37.9233 33.6169 36.7852 33.6169 36.1341 34.3299C35.4283 35.0428 35.4283 36.1944 36.1341 36.9073L54.907 56.0465C55.2298 56.4303 55.6675 56.5949 56.1545 56.5949Z" fill="#2A3038"/>
<path d="M144.706 46.6687C136.838 46.6687 130.436 40.1975 130.436 32.1361C130.436 24.0746 136.838 17.6035 144.706 17.6035C152.574 17.6035 158.976 24.1843 158.976 32.1909C158.976 40.1976 152.574 46.6687 144.706 46.6687Z" fill="white"/>
<path d="M144.706 44.859C137.817 44.859 132.225 39.1557 132.225 32.1362C132.225 25.1167 137.812 19.4133 144.706 19.4133C151.6 19.4133 157.187 25.1167 157.187 32.1362C157.187 39.1557 151.6 44.859 144.706 44.859Z" fill="#F7B32E"/>
<path d="M144.816 40.3073C147.201 40.3073 149.154 39.5944 150.566 38.1137C152.842 35.7556 152.842 32.3007 152.842 32.1362C152.842 31.4781 152.246 30.9846 151.649 30.9297C150.998 30.9297 150.457 31.4781 150.511 32.1362C150.511 32.191 150.511 34.7137 148.936 36.3589C148.011 37.346 146.659 37.8395 144.919 37.8395C139.333 37.8395 139.059 32.4652 139.059 31.862C139.059 31.2039 138.518 30.6555 137.867 30.6555C137.216 30.6555 136.674 31.2039 136.729 31.862C136.619 34.8233 138.408 40.3073 144.816 40.3073Z" fill="#2A3038"/>
<path d="M142.32 31.6426C143.136 31.6426 143.787 30.9846 143.787 30.1071V26.2135C143.787 25.3909 143.136 24.678 142.32 24.678C141.505 24.678 140.854 25.3361 140.854 26.2135V30.162C140.854 30.9846 141.505 31.6426 142.32 31.6426Z" fill="#2A3038"/>
<path d="M147.037 31.6426C147.852 31.6426 148.503 30.9846 148.503 30.1071V26.2135C148.503 25.3909 147.852 24.678 147.037 24.678C146.222 24.678 145.571 25.3361 145.571 26.2135V30.162C145.571 30.9846 146.222 31.6426 147.037 31.6426Z" fill="#2A3038"/>
<path d="M321.464 122.737C311.736 122.737 299.266 121.854 297.368 121.717C295.234 121.563 293.625 119.699 293.784 117.56C293.937 115.421 295.781 113.798 297.931 113.968C304.929 114.478 324.282 115.58 329.694 114.549C334.924 113.551 338.087 112.948 341.189 96.9404L342.3 91.0506C342.7 88.9392 344.724 87.5518 346.831 87.9521C348.937 88.3524 350.316 90.3815 349.922 92.4929L348.806 98.4046C345.288 116.54 340.516 120.395 331.144 122.189C328.993 122.6 325.459 122.748 321.464 122.748V122.737Z" fill="#171C21"/>
<path d="M298.577 124.141L304.24 124.843C304.24 124.843 304.798 125.688 305.69 121.141C306.582 116.595 303.217 113.409 303.217 113.409L298.571 124.141H298.577Z" fill="#B3B1B2"/>
<path d="M279.985 129.17C279.268 130.629 277.528 131.287 276.018 130.64C274.458 129.971 273.736 128.161 274.404 126.592L278.562 116.875C279.235 115.317 281.035 114.588 282.6 115.257C284.159 115.926 284.882 117.736 284.214 119.304L280.056 129.022C280.034 129.071 280.012 129.121 279.99 129.17H279.985Z" fill="white"/>
<path d="M290.32 117.867L288.783 130.31C288.575 132 287.037 133.201 285.358 132.987C283.672 132.778 282.474 131.237 282.688 129.554L284.225 117.111C284.433 115.421 285.97 114.22 287.65 114.434C289.335 114.643 290.534 116.184 290.32 117.867Z" fill="white"/>
<path d="M294.867 130.3C294.681 131.824 293.379 133.003 291.803 132.998C290.107 132.992 288.734 131.605 288.745 129.905L288.799 117.829C288.799 116.124 290.189 114.753 291.885 114.763C293.581 114.769 294.955 116.156 294.944 117.856L294.889 129.932C294.889 130.058 294.878 130.179 294.867 130.3Z" fill="white"/>
<path d="M300.394 129.428C300.202 130.974 298.872 132.159 297.28 132.126C295.584 132.093 294.233 130.683 294.271 128.983L294.49 118.262C294.523 116.557 295.929 115.213 297.625 115.246C299.321 115.279 300.673 116.688 300.634 118.388L300.415 129.109C300.415 129.219 300.404 129.323 300.394 129.428Z" fill="white"/>
<path d="M277.769 119.194C278.54 109.762 291.644 108.945 300.415 111.363C309.186 113.782 306.259 124.953 299.015 124.492C291.77 124.037 277.342 124.459 277.774 119.194H277.769Z" fill="white"/>
<path d="M308.289 114.407L307.145 123.653C306.932 125.402 305.34 126.642 303.6 126.428C301.854 126.214 300.618 124.618 300.831 122.874L301.975 113.628C302.188 111.879 303.78 110.639 305.52 110.853C307.266 111.067 308.502 112.663 308.289 114.407Z" fill="white"/>
<path d="M278.354 118.63L277.205 121.037C277.139 121.174 276.975 121.229 276.838 121.163C276.702 121.097 276.625 120.949 276.713 120.796L277.862 118.394C277.927 118.257 278.091 118.202 278.228 118.268C278.36 118.334 278.42 118.493 278.36 118.63H278.354Z" fill="#B1B1B1"/>
<path d="M302.396 113.722L300.952 125.424C300.935 125.572 300.798 125.682 300.645 125.66C300.492 125.638 300.388 125.507 300.41 125.353L301.854 113.65C301.871 113.502 302.008 113.392 302.161 113.414C302.314 113.436 302.418 113.568 302.396 113.722Z" fill="#B1B1B1"/>
<path d="M269.102 112.274C271.069 112.274 272.664 109.799 272.664 106.746C272.664 103.693 271.069 101.218 269.102 101.218C267.134 101.218 265.54 103.693 265.54 106.746C265.54 109.799 267.134 112.274 269.102 112.274Z" fill="#006186"/>
</g>
<defs>
<linearGradient id="paint0_linear_1638_188350" x1="220.126" y1="88.6597" x2="320.507" y2="88.6597" gradientUnits="userSpaceOnUse">
<stop stop-color="#86C7AC"/>
<stop offset="0.24" stop-color="#80C4B1"/>
<stop offset="0.55" stop-color="#70BDC1"/>
<stop offset="0.9" stop-color="#55B1DA"/>
<stop offset="1" stop-color="#4CADE2"/>
</linearGradient>
<clipPath id="clip0_1638_188350">
<rect width="423" height="149" fill="white"/>
</clipPath>
</defs>
</svg>
