<svg viewBox="0 0 117 117" fill="none" xmlns="http://www.w3.org/2000/svg">
<rect x="22" y="23" width="74" height="75" rx="2" fill="#29B57D" stroke="#000D40" stroke-width="4" stroke-linejoin="round"/>
<path d="M39 63.6741C39 63.3028 39.2057 62.9621 39.5343 62.7892L51.2216 56.6388C51.3118 56.5913 51.3683 56.4977 51.3683 56.3957C51.3683 56.2937 51.3118 56.2002 51.2216 56.1527L39.5343 50.0023C39.2057 49.8294 39 49.4886 39 49.1173V45.6654C39 44.9108 39.8039 44.4281 40.47 44.7828L56.377 53.253C56.7032 53.4267 56.907 53.7661 56.907 54.1356V58.6558C56.907 59.0254 56.7032 59.3648 56.377 59.5385L40.47 68.0087C39.8039 68.3634 39 67.8807 39 67.126V63.6741Z" fill="#000D40"/>
<path d="M64.0108 77C63.4585 77 63.0108 76.5523 63.0108 76V72.9837C63.0108 72.4314 63.4585 71.9837 64.0108 71.9837H82C82.5523 71.9837 83 72.4314 83 72.9837V76C83 76.5523 82.5523 77 82 77H64.0108Z" fill="#000D40"/>
<path d="M111.435 117H5.56536C2.49282 117 0 114.507 0 111.435V5.56536C0 2.49282 2.49282 0 5.56536 0H111.435C114.507 0 117 2.49282 117 5.56536V111.435C117 114.507 114.507 117 111.435 117ZM5.56536 3.71024C4.54504 3.71024 3.71024 4.54504 3.71024 5.56536V111.435C3.71024 112.455 4.54504 113.29 5.56536 113.29H111.435C112.455 113.29 113.29 112.455 113.29 111.435V5.56536C113.29 4.54504 112.455 3.71024 111.435 3.71024H5.56536Z" fill="#000D40"/>
</svg>
