<svg viewBox="0 0 117 117" fill="none" xmlns="http://www.w3.org/2000/svg">
<path d="M89.4842 22.5664H41.5654C39.5163 22.5664 37.8551 24.2275 37.8551 26.2766V94.8685C37.8551 96.9176 39.5163 98.5787 41.5654 98.5787H89.4842C91.5334 98.5787 93.1945 96.9176 93.1945 94.8685V26.2766C93.1945 24.2275 91.5334 22.5664 89.4842 22.5664Z" fill="#29B57D"/>
<path d="M89.4842 100.434H41.5654C38.4963 100.434 36 97.9374 36 94.8684V26.2765C36 23.2075 38.4963 20.7112 41.5654 20.7112H89.4842C92.5533 20.7112 95.0496 23.2075 95.0496 26.2765V94.8684C95.0496 97.9374 92.5533 100.434 89.4842 100.434ZM41.5654 24.4214C40.5427 24.4214 39.7102 25.2539 39.7102 26.2765V94.8684C39.7102 95.891 40.5427 96.7235 41.5654 96.7235H89.4842C90.5069 96.7235 91.3393 95.891 91.3393 94.8684V26.2765C91.3393 25.2539 90.5069 24.4214 89.4842 24.4214H41.5654Z" fill="#000D40"/>
<path d="M84.2098 47.4226H47.3139C46.2889 47.4226 45.4587 46.5925 45.4587 45.5675C45.4587 44.5426 46.2889 43.7124 47.3139 43.7124H84.2098C85.2348 43.7124 86.065 44.5426 86.065 45.5675C86.065 46.5925 85.2348 47.4226 84.2098 47.4226Z" fill="#000D40"/>
<path d="M84.2098 39.0305H47.3139C46.2889 39.0305 45.4587 38.2004 45.4587 37.1754C45.4587 36.1505 46.2889 35.3203 47.3139 35.3203H84.2098C85.2348 35.3203 86.065 36.1505 86.065 37.1754C86.065 38.2004 85.2348 39.0305 84.2098 39.0305Z" fill="#000D40"/>
<path d="M84.2098 55.8147H47.3139C46.2889 55.8147 45.4587 54.9846 45.4587 53.9596C45.4587 52.9347 46.2889 52.1045 47.3139 52.1045H84.2098C85.2348 52.1045 86.065 52.9347 86.065 53.9596C86.065 54.9846 85.2348 55.8147 84.2098 55.8147Z" fill="#000D40"/>
<path d="M84.2098 64.2068H47.3139C46.2889 64.2068 45.4587 63.3767 45.4587 62.3517C45.4587 61.3267 46.2889 60.4966 47.3139 60.4966H84.2098C85.2348 60.4966 86.065 61.3267 86.065 62.3517C86.065 63.3767 85.2348 64.2068 84.2098 64.2068Z" fill="#000D40"/>
<path d="M84.2098 72.6001H47.3139C46.2889 72.6001 45.4587 71.77 45.4587 70.745C45.4587 69.7201 46.2889 68.8899 47.3139 68.8899H84.2098C85.2348 68.8899 86.065 69.7201 86.065 70.745C86.065 71.77 85.2348 72.6001 84.2098 72.6001Z" fill="#000D40"/>
<path d="M84.2098 80.9922H47.3139C46.2889 80.9922 45.4587 80.1621 45.4587 79.1371C45.4587 78.1121 46.2889 77.282 47.3139 77.282H84.2098C85.2348 77.282 86.065 78.1121 86.065 79.1371C86.065 80.1621 85.2348 80.9922 84.2098 80.9922Z" fill="#000D40"/>
<path d="M84.2098 89.3843H47.3139C46.2889 89.3843 45.4587 88.5541 45.4587 87.5292C45.4587 86.5042 46.2889 85.6741 47.3139 85.6741H84.2098C85.2348 85.6741 86.065 86.5042 86.065 87.5292C86.065 88.5541 85.2348 89.3843 84.2098 89.3843Z" fill="#000D40"/>
<path d="M111.435 117H5.56536C2.49282 117 0 114.507 0 111.435V5.56536C0 2.49282 2.49282 0 5.56536 0H111.435C114.507 0 117 2.49282 117 5.56536V111.435C117 114.507 114.507 117 111.435 117ZM5.56536 3.71024C4.54504 3.71024 3.71024 4.54504 3.71024 5.56536V111.435C3.71024 112.455 4.54504 113.29 5.56536 113.29H111.435C112.455 113.29 113.29 112.455 113.29 111.435V5.56536C113.29 4.54504 112.455 3.71024 111.435 3.71024H5.56536Z" fill="#000D40"/>
<path d="M30.25 83.7176L61 65.9641C63.6667 64.4245 63.6667 60.5755 61 59.0359L30.25 41.2824C27.5833 39.7428 24.25 41.6673 24.25 44.7465L24.25 80.2535C24.25 83.3327 27.5833 85.2572 30.25 83.7176Z" fill="#29B57D" stroke="#000D40" stroke-width="4" stroke-linejoin="round"/>
</svg>
