<svg width="117" height="117" viewBox="0 0 117 117" fill="none" xmlns="http://www.w3.org/2000/svg">
<g clip-path="url(#clip0_1638_188250)">
<rect x="2" y="2" width="113" height="113" rx="5" fill="#F2F2F6"/>
<path d="M111.435 117H5.56536C2.49282 117 0 114.507 0 111.435V5.56536C0 2.49282 2.49282 0 5.56536 0H111.435C114.507 0 117 2.49282 117 5.56536V111.435C117 114.507 114.507 117 111.435 117ZM5.56536 3.71024C4.54504 3.71024 3.71024 4.54504 3.71024 5.56536V111.435C3.71024 112.455 4.54504 113.29 5.56536 113.29H111.435C112.455 113.29 113.29 112.455 113.29 111.435V5.56536C113.29 4.54504 112.455 3.71024 111.435 3.71024H5.56536Z" fill="#101C2B"/>
<path d="M48.1638 52.4534H21.6009C19.5486 52.4534 17.8906 50.7954 17.8906 48.7432V22.1802C17.8906 20.128 19.5486 18.47 21.6009 18.47H48.1638C50.2161 18.47 51.8741 20.128 51.8741 22.1802V48.7432C51.8741 50.7954 50.2161 52.4534 48.1638 52.4534Z" fill="#4EAC78"/>
<path d="M48.1635 54.3084H21.6005C18.528 54.3084 16.0352 51.8156 16.0352 48.7431V22.1801C16.0352 19.1076 18.528 16.6147 21.6005 16.6147H48.1635C51.236 16.6147 53.7288 19.1076 53.7288 22.1801V48.7431C53.7288 51.8156 51.236 54.3084 48.1635 54.3084ZM21.6005 20.325C20.5802 20.325 19.7454 21.1598 19.7454 22.1801V48.7431C19.7454 49.7634 20.5802 50.5982 21.6005 50.5982H48.1635C49.1838 50.5982 50.0186 49.7634 50.0186 48.7431V22.1801C50.0186 21.1598 49.1838 20.325 48.1635 20.325H21.6005Z" fill="#101C2B"/>
<path d="M93.1736 52.4534H66.6106C64.5584 52.4534 62.9004 50.7954 62.9004 48.7432V22.1802C62.9004 20.128 64.5584 18.47 66.6106 18.47H93.1736C95.2258 18.47 96.8838 20.128 96.8838 22.1802V48.7432C96.8838 50.7954 95.2142 52.4534 93.1736 52.4534Z" fill="#4EAC78"/>
<path d="M93.1733 54.3084H66.6103C63.5377 54.3084 61.0449 51.8156 61.0449 48.7431V22.1801C61.0449 19.1076 63.5377 16.6147 66.6103 16.6147H93.1733C96.2458 16.6147 98.7386 19.1076 98.7386 22.1801V48.7431C98.7386 51.8156 96.2342 54.3084 93.1733 54.3084ZM66.6103 20.325C65.59 20.325 64.7552 21.1598 64.7552 22.1801V48.7431C64.7552 49.7634 65.59 50.5982 66.6103 50.5982H93.1733C94.1936 50.5982 95.0284 49.7634 95.0284 48.7431V22.1801C95.0284 21.1598 94.1936 20.325 93.1733 20.325H66.6103Z" fill="#101C2B"/>
<path d="M48.1638 98.53H21.6009C19.5486 98.53 17.8906 96.8719 17.8906 94.8197V68.2451C17.8906 66.1929 19.5486 64.5349 21.6009 64.5349H48.1638C50.2161 64.5349 51.8741 66.1929 51.8741 68.2451V94.8081C51.8741 96.8604 50.2161 98.53 48.1638 98.53Z" fill="#4EAC78"/>
<path d="M48.1635 100.385H21.6005C18.528 100.385 16.0352 97.8922 16.0352 94.8196V68.245C16.0352 65.1725 18.528 62.6797 21.6005 62.6797H48.1635C51.236 62.6797 53.7288 65.1725 53.7288 68.245V94.808C53.7288 97.8806 51.236 100.385 48.1635 100.385ZM21.6005 66.3899C20.5802 66.3899 19.7454 67.2247 19.7454 68.245V94.808C19.7454 95.8283 20.5802 96.6631 21.6005 96.6631H48.1635C49.1838 96.6631 50.0186 95.8283 50.0186 94.808V68.245C50.0186 67.2247 49.1838 66.3899 48.1635 66.3899H21.6005Z" fill="#101C2B"/>
<path d="M93.1736 98.53H66.6106C64.5584 98.53 62.9004 96.8719 62.9004 94.8197V68.2451C62.9004 66.1929 64.5584 64.5349 66.6106 64.5349H93.1736C95.2258 64.5349 96.8838 66.1929 96.8838 68.2451V94.8081C96.8838 96.8604 95.2142 98.53 93.1736 98.53Z" fill="#4EAC78"/>
<path d="M93.1733 100.385H66.6103C63.5377 100.385 61.0449 97.8922 61.0449 94.8196V68.245C61.0449 65.1725 63.5377 62.6797 66.6103 62.6797H93.1733C96.2458 62.6797 98.7386 65.1725 98.7386 68.245V94.808C98.7386 97.8806 96.2342 100.385 93.1733 100.385ZM66.6103 66.3899C65.59 66.3899 64.7552 67.2247 64.7552 68.245V94.808C64.7552 95.8283 65.59 96.6631 66.6103 96.6631H93.1733C94.1936 96.6631 95.0284 95.8283 95.0284 94.808V68.245C95.0284 67.2247 94.1936 66.3899 93.1733 66.3899H66.6103Z" fill="#101C2B"/>
</g>
<defs>
<clipPath id="clip0_1638_188250">
<rect width="117" height="117" fill="white"/>
</clipPath>
</defs>
</svg>
