<svg width="117" height="117" viewBox="0 0 117 117" fill="none" xmlns="http://www.w3.org/2000/svg">
<path d="M111.435 117H5.56536C2.49282 117 0 114.507 0 111.435V5.56536C0 2.49282 2.49282 0 5.56536 0H111.435C114.507 0 117 2.49282 117 5.56536V111.435C117 114.507 114.507 117 111.435 117ZM5.56536 3.71024C4.54504 3.71024 3.71024 4.54504 3.71024 5.56536V111.435C3.71024 112.455 4.54504 113.29 5.56536 113.29H111.435C112.455 113.29 113.29 112.455 113.29 111.435V5.56536C113.29 4.54504 112.455 3.71024 111.435 3.71024H5.56536Z" fill="#101C2B"/>
<path d="M58.8435 102.687C83.0238 102.687 102.687 83.0238 102.687 58.8435C102.687 34.6631 83.0238 15 58.8435 15C34.6631 15 15 34.6631 15 58.8435C15 83.0238 34.6631 102.687 58.8435 102.687Z" fill="#4EAC78"/>
<path d="M83.0842 56.4992L82.7418 56.7407C80.7337 58.158 78.9979 59.0896 77.2788 59.6732C75.5183 60.2704 73.6464 60.5488 71.3875 60.5488C69.2703 60.5488 67.4771 60.2497 65.7442 59.6068C64.207 59.0367 62.6529 58.1985 60.3818 56.7146C57.9804 55.0195 55.8417 53.884 53.6517 53.1416C51.355 52.3628 48.9706 52 46.1486 52C40.5732 52 36.9979 53.6481 32.3501 56.6894L32 56.9186L34.765 61.54L35.1151 61.3109C39.111 58.696 41.7815 57.4515 46.1486 57.4515C48.4088 57.4515 50.2823 57.7299 52.044 58.3272C53.7664 58.9111 55.4999 59.8423 57.5003 61.2576L57.572 61.3065L57.5781 61.3106C62.2259 64.3519 65.8032 66 71.3872 66C76.9713 66 80.824 64.6708 85.6576 61.2593L86 61.0178L83.0842 56.4992Z" fill="#101C2B"/>
<path d="M83.0842 40.1778L82.7418 40.4021C80.7337 41.7182 78.9979 42.5832 77.2788 43.1251C75.5183 43.6797 73.6464 43.9382 71.3875 43.9382C69.2703 43.9382 67.4771 43.6604 65.7442 43.0635C64.207 42.5341 62.6529 41.7558 60.3818 40.3778C57.9804 38.8039 55.8417 37.7494 53.6517 37.0601C51.355 36.3369 48.9706 36 46.1486 36C40.5732 36 36.9979 37.5304 32.3501 40.3545L32 40.5672L34.765 44.8586L35.1151 44.6458C39.111 42.2177 41.7815 41.0621 46.1486 41.0621C48.4088 41.0621 50.2823 41.3206 52.044 41.8752C53.7664 42.4174 55.4999 43.2822 57.5003 44.5964L57.572 44.6418L57.5781 44.6455C62.2259 47.4696 65.8032 49 71.3872 49C76.9713 49 80.824 47.7657 85.6576 44.5979L86 44.3737L83.0842 40.1778Z" fill="#101C2B"/>
<path d="M83.0838 73.1778L82.7414 73.4021C80.7334 74.7182 78.9976 75.5832 77.2785 76.1251C75.518 76.6797 73.6461 76.9382 71.3872 76.9382C69.2699 76.9382 67.4768 76.6604 65.7439 76.0635C64.2067 75.5341 62.6529 74.7561 60.3818 73.3778C57.9804 71.8039 55.8414 70.7494 53.6517 70.0601C51.355 69.3369 48.9706 69 46.1486 69C40.5732 69 36.9979 70.5304 32.3501 73.3545L32 73.5672L34.765 77.8586L35.1151 77.6458C39.111 75.2177 41.7815 74.0621 46.1486 74.0621C48.4088 74.0621 50.282 74.3206 52.044 74.8752C53.7661 75.4174 55.4999 76.2822 57.5003 77.5964L57.572 77.6418L57.5781 77.6455C62.2259 80.4696 65.8032 82 71.3872 82C76.9713 82 80.824 80.7657 85.6576 77.5979L86 77.3736L83.0838 73.1778Z" fill="#101C2B"/>
</svg>
