<svg viewBox="0 0 117 117" fill="none" xmlns="http://www.w3.org/2000/svg">
<g clip-path="url(#clip0_980_32547)">
<rect x="2" y="2" width="113" height="113" rx="5" fill="#F7F9FC"/>
<path d="M111.435 117H5.56536C2.49282 117 0 114.507 0 111.435V5.56536C0 2.49282 2.49282 0 5.56536 0H111.435C114.507 0 117 2.49282 117 5.56536V111.435C117 114.507 114.507 117 111.435 117ZM5.56536 3.71024C4.54504 3.71024 3.71024 4.54504 3.71024 5.56536V111.435C3.71024 112.455 4.54504 113.29 5.56536 113.29H111.435C112.455 113.29 113.29 112.455 113.29 111.435V5.56536C113.29 4.54504 112.455 3.71024 111.435 3.71024H5.56536Z" fill="#000D40"/>
<path d="M48.1635 52.4534H21.6005C19.5483 52.4534 17.8903 50.7954 17.8903 48.7432V22.1802C17.8903 20.128 19.5483 18.47 21.6005 18.47H48.1635C50.2157 18.47 51.8737 20.128 51.8737 22.1802V48.7432C51.8737 50.7954 50.2157 52.4534 48.1635 52.4534Z" fill="#29B57D"/>
<path d="M48.1635 54.3084H21.6005C18.528 54.3084 16.0352 51.8156 16.0352 48.7431V22.1801C16.0352 19.1076 18.528 16.6147 21.6005 16.6147H48.1635C51.236 16.6147 53.7288 19.1076 53.7288 22.1801V48.7431C53.7288 51.8156 51.236 54.3084 48.1635 54.3084ZM21.6005 20.325C20.5802 20.325 19.7454 21.1598 19.7454 22.1801V48.7431C19.7454 49.7634 20.5802 50.5982 21.6005 50.5982H48.1635C49.1838 50.5982 50.0186 49.7634 50.0186 48.7431V22.1801C50.0186 21.1598 49.1838 20.325 48.1635 20.325H21.6005Z" fill="#000D40"/>
<path d="M93.1734 52.4534H66.6104C64.5582 52.4534 62.9002 50.7954 62.9002 48.7432V22.1802C62.9002 20.128 64.5582 18.47 66.6104 18.47H93.1734C95.2256 18.47 96.8836 20.128 96.8836 22.1802V48.7432C96.8836 50.7954 95.214 52.4534 93.1734 52.4534Z" fill="#29B57D"/>
<path d="M93.1734 54.3084H66.6104C63.5379 54.3084 61.045 51.8156 61.045 48.7431V22.1801C61.045 19.1076 63.5379 16.6147 66.6104 16.6147H93.1734C96.2459 16.6147 98.7387 19.1076 98.7387 22.1801V48.7431C98.7387 51.8156 96.2343 54.3084 93.1734 54.3084ZM66.6104 20.325C65.5901 20.325 64.7553 21.1598 64.7553 22.1801V48.7431C64.7553 49.7634 65.5901 50.5982 66.6104 50.5982H93.1734C94.1937 50.5982 95.0285 49.7634 95.0285 48.7431V22.1801C95.0285 21.1598 94.1937 20.325 93.1734 20.325H66.6104Z" fill="#000D40"/>
<path d="M48.1635 98.53H21.6005C19.5483 98.53 17.8903 96.8719 17.8903 94.8197V68.2451C17.8903 66.1929 19.5483 64.5349 21.6005 64.5349H48.1635C50.2157 64.5349 51.8737 66.1929 51.8737 68.2451V94.8081C51.8737 96.8604 50.2157 98.53 48.1635 98.53Z" fill="#29B57D"/>
<path d="M48.1635 100.385H21.6005C18.528 100.385 16.0352 97.8922 16.0352 94.8196V68.245C16.0352 65.1725 18.528 62.6797 21.6005 62.6797H48.1635C51.236 62.6797 53.7288 65.1725 53.7288 68.245V94.808C53.7288 97.8806 51.236 100.385 48.1635 100.385ZM21.6005 66.3899C20.5802 66.3899 19.7454 67.2247 19.7454 68.245V94.808C19.7454 95.8283 20.5802 96.6631 21.6005 96.6631H48.1635C49.1838 96.6631 50.0186 95.8283 50.0186 94.808V68.245C50.0186 67.2247 49.1838 66.3899 48.1635 66.3899H21.6005Z" fill="#000D40"/>
<path d="M93.1734 98.53H66.6104C64.5582 98.53 62.9002 96.8719 62.9002 94.8197V68.2451C62.9002 66.1929 64.5582 64.5349 66.6104 64.5349H93.1734C95.2256 64.5349 96.8836 66.1929 96.8836 68.2451V94.8081C96.8836 96.8604 95.214 98.53 93.1734 98.53Z" fill="#29B57D"/>
<path d="M93.1734 100.385H66.6104C63.5379 100.385 61.045 97.8922 61.045 94.8196V68.245C61.045 65.1725 63.5379 62.6797 66.6104 62.6797H93.1734C96.2459 62.6797 98.7387 65.1725 98.7387 68.245V94.808C98.7387 97.8806 96.2343 100.385 93.1734 100.385ZM66.6104 66.3899C65.5901 66.3899 64.7553 67.2247 64.7553 68.245V94.808C64.7553 95.8283 65.5901 96.6631 66.6104 96.6631H93.1734C94.1937 96.6631 95.0285 95.8283 95.0285 94.808V68.245C95.0285 67.2247 94.1937 66.3899 93.1734 66.3899H66.6104Z" fill="#000D40"/>
</g>
<defs>
<clipPath id="clip0_980_32547">
<rect width="117" height="117" fill="white"/>
</clipPath>
</defs>
</svg>
