<svg width="117" height="117" viewBox="0 0 117 117" fill="none" xmlns="http://www.w3.org/2000/svg">
<rect x="2" y="2" width="113" height="113" rx="5" fill="#F7F9FC"/>
<path d="M111.435 117H5.56536C2.49282 117 0 114.507 0 111.435V5.56536C0 2.49282 2.49282 0 5.56536 0H111.435C114.507 0 117 2.49282 117 5.56536V111.435C117 114.507 114.507 117 111.435 117ZM5.56536 3.71024C4.54504 3.71024 3.71024 4.54504 3.71024 5.56536V111.435C3.71024 112.455 4.54504 113.29 5.56536 113.29H111.435C112.455 113.29 113.29 112.455 113.29 111.435V5.56536C113.29 4.54504 112.455 3.71024 111.435 3.71024H5.56536Z" fill="#000D40"/>
<rect x="23" y="53" width="71" height="33" fill="#29B57D"/>
<rect x="39" y="25" width="38" height="10" rx="5" fill="#29B57D"/>
<ellipse cx="59.5" cy="56" rx="12.5" ry="12" fill="#29B57D"/>
<rect x="38" y="24" width="41" height="12" rx="6" stroke="#000D40" stroke-width="4"/>
<line x1="23" y1="46" x2="23" y2="94" stroke="#000D40" stroke-width="4" stroke-linecap="round"/>
<line x1="22" y1="86" x2="94" y2="86" stroke="#000D40" stroke-width="4"/>
<line x1="22" y1="53" x2="94" y2="53" stroke="#000D40" stroke-width="4"/>
<line x1="94" y1="46" x2="94" y2="94" stroke="#000D40" stroke-width="4" stroke-linecap="round"/>
<line x1="59" y1="37" x2="59" y2="45" stroke="#000D40" stroke-width="4"/>
<path fill-rule="evenodd" clip-rule="evenodd" d="M67.0008 51C65.1763 48.5711 62.2717 47 59 47C55.7284 47 52.8237 48.5711 50.9993 51H46.3473C48.5942 46.2701 53.4152 43 59 43C64.5848 43 69.4058 46.2701 71.6528 51H67.0008Z" fill="#000D40"/>
</svg>
