<svg viewBox="0 0 117 117" fill="none" xmlns="http://www.w3.org/2000/svg">
<g clip-path="url(#clip0_980_32578)">
<path d="M111.435 117H5.56536C2.49282 117 0 114.507 0 111.435V5.56536C0 2.49282 2.49282 0 5.56536 0H111.435C114.507 0 117 2.49282 117 5.56536V111.435C117 114.507 114.507 117 111.435 117ZM5.56536 3.71024C4.54504 3.71024 3.71024 4.54504 3.71024 5.56536V111.435C3.71024 112.455 4.54504 113.29 5.56536 113.29H111.435C112.455 113.29 113.29 112.455 113.29 111.435V5.56536C113.29 4.54504 112.455 3.71024 111.435 3.71024H5.56536Z" fill="#000D40"/>
<path d="M58.6739 39.1431C58.6739 39.1188 58.6739 39.0956 58.6739 39.0724C58.6739 28.0217 49.7183 19.0603 38.6711 19.0603C27.6239 19.0603 18.6671 28.0217 18.6671 39.0724C18.6671 50.1231 27.6227 59.0868 38.6711 59.0868H55.8159C57.395 59.0868 58.6751 57.8056 58.6751 56.2253V39.1431H58.6739Z" fill="#29B57D"/>
<path d="M57.5156 60.9418H38.6699C26.6163 60.9418 16.8109 51.1317 16.8109 39.0723C16.8109 27.0129 26.6163 17.2051 38.6699 17.2051C50.7236 17.2051 60.529 27.0152 60.529 39.0723V57.9006C60.529 60.5012 60.1163 60.9418 57.5168 60.9418H57.5156ZM38.6699 20.9153C28.6627 20.9153 20.5211 29.0604 20.5211 39.0723C20.5211 49.0841 28.6627 57.2316 38.6699 57.2316H55.8147C56.3678 57.2316 56.8188 56.7805 56.8188 56.2252V39.0723C56.8188 29.0604 48.6771 20.9153 38.6699 20.9153Z" fill="#000D40"/>
<path d="M58.6739 79.0304C58.6739 79.0547 58.6739 79.0779 58.6739 79.1011C58.6739 90.1518 67.6295 99.1132 78.6767 99.1132C89.724 99.1132 98.6807 90.1518 98.6807 79.1011C98.6807 68.0504 89.7251 59.0867 78.6767 59.0867H61.532C59.9528 59.0867 58.6728 60.3679 58.6728 61.9482V79.0304H58.6739Z" fill="#29B57D"/>
<path d="M78.6779 100.969C66.6254 100.969 56.82 91.1593 56.82 79.1022V60.5417C56.82 57.9411 56.7573 57.2327 59.3568 57.2327H78.6779C90.7315 57.2327 100.537 67.0439 100.537 79.1022C100.537 91.1605 90.7315 100.969 78.6779 100.969ZM60.529 79.0303V79.1022C60.529 89.114 68.6707 97.2592 78.6779 97.2592C88.6851 97.2592 96.8267 89.114 96.8267 79.1022C96.8267 69.0904 88.6851 60.9429 78.6779 60.9429H61.5331C60.9801 60.9429 60.529 61.3939 60.529 61.9493V79.0315V79.0303Z" fill="#000D40"/>
</g>
<defs>
<clipPath id="clip0_980_32578">
<rect width="117" height="117" fill="white"/>
</clipPath>
</defs>
</svg>
