<svg width="117" height="117" viewBox="0 0 117 117" fill="none" xmlns="http://www.w3.org/2000/svg">
<circle cx="36.5" cy="73.5" r="10.5" fill="#4EAC78"/>
<circle cx="36.5" cy="42.5" r="10.5" fill="#4EAC78"/>
<path d="M69 86L49 57.5L69 31L91.5 32L72.5 57.5L91.5 84.5L69 86Z" fill="#4EAC78"/>
<path d="M111.435 117H5.56536C2.49282 117 0 114.507 0 111.435V5.56536C0 2.49282 2.49282 0 5.56536 0H111.435C114.507 0 117 2.49282 117 5.56536V111.435C117 114.507 114.507 117 111.435 117ZM5.56536 3.71024C4.54504 3.71024 3.71024 4.54504 3.71024 5.56536V111.435C3.71024 112.455 4.54504 113.29 5.56536 113.29H111.435C112.455 113.29 113.29 112.455 113.29 111.435V5.56536C113.29 4.54504 112.455 3.71024 111.435 3.71024H5.56536Z" fill="#101C2B"/>
<path fill-rule="evenodd" clip-rule="evenodd" d="M36.3912 33.6399C31.5697 33.6399 27.6399 37.568 27.6399 42.4406C27.6399 47.3097 31.5816 51.2414 36.3912 51.2414C41.2009 51.2414 45.1426 47.3097 45.1426 42.4406C45.1426 37.5715 41.2009 33.6399 36.3912 33.6399ZM23 42.4406C23 35.0251 28.9876 29 36.3912 29C43.7795 29 49.7824 35.0251 49.7824 42.4406C49.7824 49.8561 43.7795 55.8812 36.3912 55.8812C29.003 55.8812 23 49.8561 23 42.4406Z" fill="#101C2B"/>
<path fill-rule="evenodd" clip-rule="evenodd" d="M27.6399 73.4973C27.6399 78.3818 31.5662 82.298 36.3912 82.298C41.2043 82.298 45.1426 78.3783 45.1426 73.4973C45.1426 68.6162 41.2043 64.6965 36.3912 64.6965C31.5781 64.6965 27.6399 68.6162 27.6399 73.4973ZM23 73.4973C23 80.9282 28.9876 86.9379 36.3912 86.9379C43.7795 86.9379 49.7824 80.9282 49.7824 73.4973C49.7824 66.0663 43.7795 60.0566 36.3912 60.0566C29.003 60.0566 23 66.0663 23 73.4973Z" fill="#101C2B"/>
<path fill-rule="evenodd" clip-rule="evenodd" d="M70.1288 82.3605H87.6668L78.5166 70.2665L69.3663 58.1725L87.6743 33.7065H70.1174L51.8769 58.1566L70.1288 82.3605ZM66.4301 30.8896C67.2921 29.7464 68.6466 29.0667 70.0781 29.0667H92.3506C94.2439 29.0667 95.3059 31.2604 94.1669 32.7744L75.1729 58.1571L94.1669 83.2617C95.3213 84.7912 94.2439 87.0004 92.3506 87.0004H70.0781C68.6466 87.0004 67.2921 86.3206 66.4301 85.1619L47.3592 59.8719C47.0513 59.4703 46.6357 58.806 46.6357 58.1571C46.6357 57.5082 47.1283 56.7358 47.4361 56.3496L66.4301 30.8896Z" fill="#101C2B"/>
</svg>
