<svg viewBox="0 0 117 117" fill="none" xmlns="http://www.w3.org/2000/svg">
<path d="M111.435 117H5.56536C2.49282 117 0 114.507 0 111.435V5.56536C0 2.49282 2.49282 0 5.56536 0H111.435C114.507 0 117 2.49282 117 5.56536V111.435C117 114.507 114.507 117 111.435 117ZM5.56536 3.71024C4.54504 3.71024 3.71024 4.54504 3.71024 5.56536V111.435C3.71024 112.455 4.54504 113.29 5.56536 113.29H111.435C112.455 113.29 113.29 112.455 113.29 111.435V5.56536C113.29 4.54504 112.455 3.71024 111.435 3.71024H5.56536Z" fill="#000D40"/>
<ellipse cx="58" cy="58.5" rx="36" ry="40.5" fill="#29B57D"/>
<path d="M76.0971 35.5424C75.9286 35.5424 75.7606 35.5115 75.5938 35.4601C75.4275 35.4093 75.2624 35.3381 75.1006 35.2585C74.9388 35.179 74.7793 35.0906 74.6237 35.005C74.4682 34.9194 74.3165 34.836 74.17 34.7664C73.9857 34.6791 73.8008 34.5929 73.6154 34.5073C73.4299 34.4217 73.2439 34.3383 73.0573 34.2555C72.8708 34.1726 72.6836 34.0914 72.4959 34.0108C72.3082 33.9307 72.12 33.8517 71.9311 33.7738C71.6059 33.6402 71.279 33.5109 70.9498 33.3855C70.6212 33.2602 70.2903 33.1397 69.9583 33.0232C69.6263 32.9072 69.2926 32.7956 68.9567 32.6885C68.6213 32.5819 68.2842 32.4803 67.9455 32.3836C67.2866 32.1958 66.6226 32.0284 65.9541 31.8821C65.2856 31.7351 64.6131 31.6092 63.9367 31.5026C63.2609 31.396 62.5811 31.3093 61.8997 31.2419C61.2182 31.1745 60.5339 31.1265 59.8485 31.0972C58.3982 31.0353 56.9473 31.0525 55.5044 31.1497C54.0614 31.2474 52.6258 31.4258 51.2065 31.686C49.7872 31.9467 48.3842 32.2897 47.0061 32.7161C45.6279 33.1431 44.274 33.654 42.9533 34.2499C42.7065 34.3615 42.4348 34.5167 42.1479 34.6813C41.861 34.8454 41.5594 35.0188 41.2533 35.1652C40.9473 35.3115 40.6367 35.432 40.3318 35.4899C40.0268 35.5479 39.7275 35.5441 39.4446 35.443C39.1785 35.348 38.9592 35.1917 38.793 34.9978C38.6267 34.8039 38.5128 34.5731 38.4581 34.3295C38.4035 34.0859 38.4074 33.8302 38.4767 33.586C38.5461 33.3419 38.6797 33.1105 38.8848 32.9149C38.9953 32.8094 39.1221 32.7155 39.2585 32.6294C39.395 32.5432 39.5409 32.4653 39.6903 32.3919C39.8397 32.3184 39.9919 32.2505 40.1412 32.1836C40.2906 32.1168 40.4366 32.0522 40.5736 31.9859C40.7387 31.9058 40.9039 31.8268 41.0702 31.7495C41.2364 31.6716 41.4027 31.5954 41.5701 31.5197C41.7375 31.4441 41.9049 31.3701 42.0735 31.2966C42.2414 31.2237 42.4105 31.1513 42.5796 31.0806C42.906 30.9442 43.234 30.8122 43.5638 30.684C43.8935 30.5565 44.225 30.4327 44.5586 30.314C44.8918 30.1952 45.2266 30.0803 45.5631 29.9704C45.8996 29.8605 46.2378 29.755 46.5771 29.6545C47.9485 29.2474 49.3441 28.9155 50.7544 28.6586C52.1647 28.4018 53.5913 28.2201 55.023 28.1135C56.4547 28.0069 57.8926 27.9754 59.3271 28.019C60.7616 28.0626 62.1928 28.1814 63.6115 28.3753C64.3933 28.4824 65.1706 28.6144 65.9428 28.7707C66.7145 28.9271 67.481 29.1077 68.2414 29.3109C69.0018 29.5142 69.7554 29.7407 70.5023 29.9887C71.2491 30.2367 71.9886 30.5062 72.7203 30.7962C72.908 30.8707 73.0957 30.9464 73.2822 31.0232C73.4688 31.1 73.6554 31.1784 73.8414 31.2579C74.0274 31.3375 74.2123 31.4176 74.3972 31.4993C74.582 31.581 74.7663 31.6639 74.9495 31.7479C75.1243 31.8274 75.3142 31.9058 75.5093 31.987C75.7048 32.0677 75.9055 32.1511 76.1022 32.2405C76.2989 32.33 76.4917 32.4256 76.671 32.5311C76.8502 32.6366 77.0159 32.7526 77.1585 32.8818C77.4082 33.1088 77.552 33.3883 77.6061 33.6799C77.6602 33.9716 77.6247 34.2759 77.5148 34.5515C77.4048 34.8271 77.2217 35.0746 76.9798 35.253C76.738 35.4314 76.4382 35.5408 76.096 35.5408L76.0971 35.5424ZM31.564 51.5525C31.3183 51.5525 31.0866 51.4962 30.8809 51.3962C30.6751 51.2968 30.4947 51.1543 30.3516 50.982C30.2084 50.8096 30.103 50.6086 30.0466 50.391C29.9903 50.1733 29.9829 49.9402 30.0359 49.7044C30.0867 49.4807 30.1853 49.2564 30.3138 49.035C30.4423 48.8135 30.6007 48.5953 30.7709 48.3838C30.9412 48.1717 31.1232 47.9662 31.2985 47.7707C31.4744 47.5751 31.6435 47.389 31.7889 47.2161C32.1406 46.7969 32.5036 46.3859 32.8762 45.9844C33.2494 45.5828 33.6326 45.1907 34.0255 44.8085C34.419 44.4262 34.822 44.0534 35.2351 43.6916C35.6483 43.3298 36.0705 42.978 36.5028 42.6378C37.3517 41.9689 38.2349 41.3442 39.1481 40.7653C40.0612 40.1865 41.0042 39.6529 41.9714 39.1663C42.9387 38.6797 43.9313 38.24 44.9431 37.8484C45.9548 37.4568 46.9863 37.1127 48.0325 36.8183C50.1564 36.2201 52.3434 35.8164 54.5518 35.6087C56.7602 35.401 58.9912 35.39 61.203 35.5761C63.4153 35.7628 65.6086 36.1472 67.7431 36.7311C69.8777 37.3149 71.9531 38.0986 73.9287 39.084C74.8966 39.5662 75.8379 40.0954 76.7493 40.6681C77.6607 41.2409 78.5429 41.8579 79.3912 42.5168C80.2395 43.1752 81.054 43.875 81.8313 44.614C82.6086 45.3531 83.3486 46.1308 84.0476 46.9449C84.2037 47.1272 84.3824 47.3199 84.5673 47.5215C84.7516 47.7232 84.9421 47.9336 85.1214 48.1501C85.3012 48.3666 85.4697 48.5892 85.6112 48.8162C85.7527 49.0427 85.8665 49.273 85.937 49.5044C86.0041 49.7254 86.0153 49.948 85.9815 50.1612C85.9471 50.3738 85.8671 50.576 85.7493 50.7555C85.6315 50.9345 85.477 51.0908 85.2938 51.2106C85.1106 51.3305 84.8993 51.4144 84.6682 51.4498C84.3993 51.4907 84.1665 51.4653 83.9602 51.3929C83.7539 51.3205 83.5741 51.2012 83.4106 51.0538C83.2472 50.9068 83.0995 50.7323 82.9575 50.5495C82.8154 50.3666 82.6796 50.1755 82.5392 49.996C82.369 49.7784 82.196 49.5624 82.0195 49.3492C81.8431 49.136 81.6639 48.925 81.4818 48.7168C81.2997 48.5086 81.1143 48.3026 80.9266 48.0993C80.7383 47.896 80.5478 47.695 80.3539 47.4972C78.8174 45.9269 77.1117 44.5583 75.2798 43.3945C73.4479 42.2301 71.4904 41.2707 69.4493 40.519C67.4083 39.7673 65.2845 39.2232 63.1211 38.8907C60.9572 38.5576 58.7539 38.4361 56.5528 38.5284C54.3337 38.6217 52.1438 38.9365 50.02 39.464C47.8966 39.9915 45.8398 40.7311 43.8868 41.6734C41.9342 42.6157 40.0854 43.7607 38.3787 45.099C36.6719 46.4373 35.1066 47.9689 33.7211 49.684C33.5763 49.8635 33.4359 50.07 33.2905 50.2788C33.1451 50.4876 32.9946 50.6992 32.8289 50.8875C32.6626 51.0764 32.4811 51.2427 32.2737 51.362C32.0662 51.4813 31.8329 51.5531 31.564 51.5531V51.5525ZM51.0143 88.3598C50.7172 88.3598 50.4252 88.2571 50.1434 88.0914C49.8616 87.9252 49.5888 87.6954 49.3312 87.4408C49.073 87.1861 48.8295 86.9066 48.604 86.6415C48.3786 86.3764 48.1728 86.1251 47.9897 85.9262C47.7879 85.7081 47.5895 85.4866 47.395 85.2629C47.2 85.0386 47.0089 84.8122 46.8212 84.5824C46.6335 84.3526 46.4497 84.1201 46.2699 83.8842C46.0901 83.6484 45.9143 83.4098 45.7429 83.1679C45.3342 82.5918 44.9402 82.003 44.5654 81.4015C44.19 80.8005 43.8338 80.1869 43.5007 79.5622C43.1675 78.9375 42.8575 78.3012 42.5751 77.6539C42.2927 77.0065 42.0374 76.3487 41.8147 75.6809C41.3965 74.4287 41.0487 73.1191 40.799 71.7825C40.5493 70.4458 40.3983 69.0821 40.3735 67.7228C40.3487 66.3635 40.4496 65.008 40.7055 63.6874C40.9608 62.3668 41.3706 61.0815 41.963 59.8619C43.0475 57.6282 44.5953 55.7497 46.4435 54.2617C48.2918 52.7737 50.4404 51.6762 52.7267 51.004C55.0123 50.3324 57.4349 50.0861 59.831 50.3004C62.2272 50.5152 64.5973 51.1907 66.777 52.3622C67.808 52.9162 68.7791 53.5713 69.6725 54.3126C70.5665 55.0538 71.3833 55.8812 72.1059 56.7799C72.8285 57.6785 73.4575 58.649 73.9755 59.6758C74.4935 60.7026 74.9005 61.7857 75.1795 62.9108C75.25 63.1947 75.3137 63.4825 75.3689 63.7714C75.4247 64.0608 75.4721 64.3519 75.5109 64.6446C75.5498 64.9368 75.5797 65.2306 75.6 65.5245C75.6203 65.8183 75.6304 66.1116 75.6299 66.4049C75.6299 66.6971 75.5645 66.9777 75.4478 67.2257C75.3311 67.4737 75.1632 67.6891 74.9574 67.8493C74.7517 68.0095 74.5076 68.1155 74.2393 68.1442C73.971 68.1735 73.6785 68.1255 73.3747 67.9796C73.0849 67.8404 72.8882 67.6399 72.7535 67.4019C72.6188 67.1638 72.5467 66.8877 72.5055 66.5971C72.4644 66.306 72.4553 66 72.4469 65.7018C72.4384 65.4035 72.4311 65.1135 72.3939 64.8539C72.3533 64.5695 72.3026 64.2867 72.2423 64.0056C72.182 63.7244 72.1115 63.446 72.032 63.1699C71.952 62.8937 71.8629 62.6203 71.7643 62.3502C71.6656 62.0801 71.5574 61.8128 71.4408 61.5493C70.4149 59.2422 68.8186 57.4007 66.8926 56.0491C64.9671 54.6975 62.7119 53.8353 60.3688 53.4857C58.0256 53.1361 55.5951 53.299 53.3174 53.9983C51.0396 54.697 48.9157 55.932 47.1859 57.726C46.7862 58.1403 46.4142 58.5788 46.0715 59.0384C45.7288 59.4979 45.416 59.979 45.1364 60.4772C44.8563 60.9754 44.6094 61.4913 44.3986 62.0216C44.1878 62.5518 44.0125 63.0959 43.8761 63.6504C43.7148 64.306 43.61 64.976 43.5514 65.6532C43.4928 66.3303 43.4798 67.0152 43.5035 67.6996C43.5271 68.3839 43.5869 69.0688 43.6726 69.746C43.7582 70.4232 43.8704 71.0937 43.9989 71.7493C44.1398 72.4713 44.3168 73.1777 44.5271 73.8698C44.7373 74.5619 44.9803 75.2401 45.2542 75.9062C45.5281 76.5724 45.8331 77.2269 46.1668 77.8709C46.5005 78.5155 46.8623 79.1496 47.2507 79.7759C47.5855 80.3161 47.9395 80.8331 48.3092 81.3341C48.6796 81.8351 49.0657 82.3195 49.4648 82.7934C49.8644 83.2673 50.2764 83.7312 50.6992 84.1908C51.1219 84.6503 51.5542 85.106 51.9945 85.5633C52.2318 85.8108 52.3941 86.1091 52.477 86.4173C52.5598 86.7255 52.5643 87.0442 52.4871 87.3319C52.4099 87.6197 52.2504 87.876 52.0063 88.061C51.7622 88.2461 51.4331 88.3587 51.0165 88.3587L51.0143 88.3598ZM73.3273 82.7182C72.169 82.7182 71.0282 82.6188 69.9172 82.4183C68.8062 82.2178 67.7245 81.9168 66.6857 81.5147C65.6469 81.112 64.6503 80.6078 63.7085 80.0013C62.7671 79.3943 61.8805 78.6851 61.0615 77.872C60.3406 77.1562 59.6721 76.3581 59.0774 75.4992C58.4822 74.6403 57.9608 73.7212 57.5336 72.7634C57.1063 71.8057 56.7737 70.8098 56.5573 69.7974C56.3403 68.7849 56.2394 67.7565 56.2743 66.7341C56.2828 66.4961 56.3313 66.2663 56.4164 66.058C56.5015 65.8498 56.6227 65.6631 56.776 65.5107C56.9293 65.3582 57.1142 65.2395 57.3267 65.1677C57.5392 65.0959 57.7799 65.071 58.0431 65.1058C58.334 65.1439 58.5611 65.2345 58.7398 65.3638C58.9179 65.493 59.047 65.6604 59.1411 65.8526C59.2352 66.0448 59.2944 66.2619 59.3328 66.4894C59.3711 66.717 59.3886 66.9556 59.3998 67.1914C59.4235 67.7029 59.4799 68.2122 59.5667 68.7159C59.6535 69.2196 59.7718 69.7178 59.9195 70.2072C60.0672 70.6966 60.2448 71.1777 60.4505 71.6472C60.6562 72.1167 60.8907 72.5745 61.1517 73.0175C61.7058 73.9565 62.3664 74.811 63.1138 75.571C63.8618 76.331 64.6965 76.996 65.6001 77.5561C66.5031 78.1162 67.4743 78.5707 68.4945 78.9099C69.5147 79.249 70.5834 79.4722 71.682 79.5688C72.0067 79.5975 72.3313 79.6163 72.6554 79.6257C72.9795 79.6351 73.3036 79.6356 73.6278 79.6274C73.9519 79.6191 74.2754 79.6025 74.5989 79.5776C74.9225 79.5528 75.246 79.5202 75.569 79.4799C75.8412 79.4462 76.1293 79.4053 76.4134 79.3849C76.6975 79.3644 76.9782 79.3644 77.2352 79.4119C77.4922 79.4594 77.7261 79.5539 77.9172 79.7229C78.1083 79.8919 78.2565 80.1355 78.3428 80.4807C78.4916 81.0767 78.345 81.5147 78.0175 81.8362C77.6906 82.1576 77.1833 82.3631 76.6118 82.494C76.0397 82.6249 75.4033 82.6812 74.8176 82.7044C74.232 82.7282 73.6965 82.7188 73.3273 82.7188V82.7182ZM67.0724 89C66.8971 89 66.7167 88.9774 66.5335 88.9398C66.3503 88.9022 66.1649 88.8498 65.9806 88.7912C65.7963 88.7321 65.6136 88.6669 65.4355 88.6023C65.2574 88.5382 65.0838 88.4753 64.9192 88.4223C64.727 88.3604 64.5359 88.2969 64.3448 88.2311C64.1537 88.1654 63.9638 88.0986 63.7744 88.029C63.585 87.9599 63.3962 87.8887 63.2085 87.8152C63.0208 87.7418 62.8337 87.6667 62.6476 87.5893C62.3354 87.459 62.0254 87.3225 61.7187 87.18C61.4121 87.037 61.1089 86.8879 60.809 86.7321C60.5091 86.5763 60.2132 86.414 59.9207 86.2444C59.6287 86.0754 59.3401 85.8992 59.056 85.7169C58.4371 85.3192 57.834 84.8917 57.2506 84.4382C56.6672 83.9842 56.1035 83.5042 55.5624 82.9999C55.0219 82.4957 54.5044 81.9682 54.0135 81.4191C53.5225 80.8701 53.0592 80.3007 52.6258 79.7124C52.176 79.1021 51.7588 78.4697 51.3756 77.8179C50.9923 77.1667 50.6428 76.4961 50.3288 75.8107C50.0149 75.1247 49.7364 74.4238 49.4946 73.7096C49.2528 72.996 49.0482 72.2696 48.8819 71.535C48.7326 70.875 48.5978 70.1912 48.4975 69.4975C48.3972 68.8037 48.3295 68.0989 48.3149 67.3969C48.3002 66.6949 48.3386 65.9956 48.4479 65.3113C48.5573 64.6269 48.7388 63.958 49.0099 63.3173C49.5307 62.0878 50.3097 61.0367 51.26 60.1872C52.2103 59.3377 53.3326 58.6887 54.5405 58.2634C55.7484 57.8381 57.0432 57.6354 58.3373 57.6785C59.6315 57.7216 60.9262 58.0099 62.1353 58.5656C62.7125 58.8312 63.2615 59.1527 63.7721 59.5233C64.2828 59.8939 64.7552 60.3137 65.1802 60.7749C65.6052 61.2361 65.9823 61.7388 66.303 62.2751C66.6231 62.8119 66.8864 63.3825 67.0837 63.9796C67.1862 64.2906 67.255 64.6026 67.3046 64.9147C67.3542 65.2268 67.3841 65.5394 67.4095 65.8526C67.4348 66.1658 67.4557 66.4789 67.4867 66.7927C67.5177 67.1064 67.5583 67.4201 67.6236 67.7344C67.6862 68.0365 67.7758 68.332 67.8886 68.6176C68.0013 68.9037 68.1377 69.1799 68.2955 69.4444C68.4534 69.709 68.6326 69.9614 68.8299 70.1995C69.0277 70.4375 69.2442 70.6607 69.477 70.8667C69.9775 71.3097 70.5423 71.6659 71.1465 71.9333C71.7508 72.2006 72.3933 72.3785 73.05 72.4657C73.7061 72.553 74.3757 72.5491 75.0318 72.4525C75.6879 72.3558 76.3322 72.1658 76.9376 71.8814C77.5593 71.5892 78.0959 71.2246 78.5491 70.8015C79.0023 70.3784 79.3726 69.8968 79.6612 69.3704C79.9498 68.844 80.1578 68.2718 80.2857 67.6681C80.4142 67.0644 80.4633 66.4292 80.4351 65.7752C80.381 64.5247 80.2023 63.2897 79.9086 62.0845C79.615 60.8793 79.2063 59.7039 78.6928 58.5744C78.1793 57.4449 77.5604 56.3595 76.8468 55.3355C76.1332 54.3109 75.3244 53.3471 74.4304 52.4584C72.47 50.5092 70.1838 48.9847 67.7155 47.8922C65.2467 46.7996 62.5958 46.139 59.9049 45.9181C57.214 45.6972 54.483 45.9153 51.8558 46.5798C49.2286 47.2448 46.7045 48.3561 44.4262 49.922C43.2121 50.7566 42.0921 51.7044 41.0859 52.7467C40.0798 53.7895 39.187 54.9273 38.4266 56.143C37.6662 57.3587 37.0388 58.6512 36.5626 60.0044C36.0868 61.3571 35.7622 62.77 35.6088 64.2248C35.5429 64.8473 35.5023 65.4742 35.4854 66.1022C35.4685 66.7308 35.4747 67.3605 35.5029 67.9901C35.5311 68.6192 35.5807 69.2478 35.6506 69.8731C35.7204 70.4983 35.8106 71.1202 35.9189 71.7361C35.9899 72.1404 36.0699 72.5431 36.1578 72.9441C36.2458 73.3451 36.3422 73.7444 36.4459 74.1415C36.5502 74.5387 36.6618 74.9341 36.7807 75.3274C36.9002 75.7207 37.0264 76.1117 37.16 76.5C37.2147 76.6585 37.2812 76.8215 37.3483 76.9866C37.4154 77.1518 37.4825 77.3202 37.5377 77.4898C37.5929 77.6594 37.6363 77.8312 37.6561 78.0029C37.6758 78.1747 37.6713 78.3476 37.6313 78.5194C37.5941 78.6779 37.5309 78.8254 37.4469 78.9585C37.363 79.0916 37.2575 79.2103 37.1364 79.3114C37.0152 79.4119 36.8782 79.4948 36.73 79.5561C36.5817 79.6174 36.4233 79.6572 36.2582 79.6715C35.8332 79.7091 35.4933 79.592 35.2171 79.3766C34.9409 79.1612 34.7278 78.8486 34.5571 78.494C34.3863 78.1394 34.2572 77.7439 34.149 77.3639C34.0407 76.9839 33.9522 76.6193 33.8632 76.3266C33.7341 75.904 33.6129 75.4787 33.5002 75.0518C33.3875 74.6248 33.2832 74.1957 33.1874 73.7643C33.0915 73.3335 33.0042 72.9004 32.9253 72.4663C32.8469 72.0321 32.777 71.5958 32.7161 71.1589C32.5978 70.3072 32.5093 69.4489 32.4563 68.5872C32.4033 67.7256 32.3847 66.8611 32.4067 65.9984C32.4287 65.1356 32.4901 64.274 32.5966 63.4184C32.7032 62.5628 32.8542 61.7133 33.0549 60.8738C33.3835 59.5012 33.8559 58.1723 34.4528 56.9008C35.0497 55.6293 35.7717 54.4153 36.5986 53.2725C37.4255 52.1297 38.3584 51.0582 39.3769 50.0711C40.3954 49.0847 41.4997 48.1827 42.6709 47.3796C44.9521 45.8154 47.4553 44.6477 50.0684 43.8756C52.6816 43.1034 55.404 42.7284 58.1226 42.7488C60.8417 42.7692 63.5568 43.1862 66.1553 43.9998C68.7538 44.8129 71.2356 46.0225 73.488 47.6287C74.5178 48.3628 75.4901 49.173 76.3936 50.0496C77.2977 50.9262 78.1331 51.8685 78.8901 52.8676C79.6471 53.8668 80.3252 54.9229 80.9136 56.0259C81.5027 57.1289 82.0021 58.2795 82.4011 59.4675C82.7917 60.6291 83.1192 61.8597 83.325 63.1063C83.5307 64.353 83.6141 65.6151 83.5172 66.8402C83.4202 68.0658 83.1423 69.2539 82.6249 70.3525C82.1075 71.4511 81.351 72.4602 80.2964 73.3263C79.257 74.1796 78.0666 74.7806 76.8141 75.1357C75.5611 75.4909 74.2461 75.6003 72.957 75.4705C71.6679 75.3407 70.4047 74.9717 69.2571 74.3708C68.109 73.7698 67.0758 72.9363 66.2461 71.8775C66.0533 71.6311 65.8735 71.3749 65.7078 71.1103C65.542 70.8457 65.391 70.5729 65.2546 70.2928C65.1182 70.0128 64.997 69.7261 64.8921 69.4334C64.7867 69.1407 64.6977 68.8424 64.6255 68.5397C64.5517 68.2298 64.5077 67.9161 64.4767 67.6018C64.4457 67.2876 64.4282 66.9716 64.4063 66.6568C64.3843 66.3419 64.3589 66.0277 64.3121 65.7167C64.2654 65.4057 64.1983 65.0975 64.0923 64.7937C63.8787 64.1801 63.563 63.6206 63.169 63.1257C62.775 62.6308 62.3021 62.2005 61.7751 61.8442C61.2481 61.488 60.6664 61.2057 60.0542 61.0075C59.4421 60.8092 58.799 60.6948 58.1496 60.6744C57.5037 60.654 56.8589 60.7252 56.2388 60.8804C55.6188 61.0356 55.0224 61.2748 54.474 61.5902C53.9256 61.9056 53.4245 62.2966 52.9938 62.7562C52.5632 63.2157 52.2036 63.7432 51.937 64.3314C51.7927 64.6501 51.6873 64.9749 51.6123 65.3036C51.5373 65.6327 51.4928 65.9664 51.4697 66.3022C51.4466 66.638 51.446 66.9771 51.4584 67.3174C51.4708 67.6571 51.4962 67.9984 51.5272 68.3387C51.561 68.717 51.6061 69.0943 51.6625 69.4698C51.7188 69.8454 51.7859 70.2194 51.8643 70.5911C51.9426 70.9628 52.0322 71.3323 52.1331 71.6985C52.234 72.0653 52.3456 72.4287 52.4679 72.7888C52.9307 74.1476 53.5552 75.4478 54.3162 76.6679C55.0766 77.888 55.9733 79.0275 56.9806 80.0654C57.9879 81.1032 59.1056 82.0389 60.309 82.8508C61.5119 83.6627 62.8004 84.351 64.1487 84.8945C64.3166 84.9624 64.4852 85.0276 64.6548 85.0916C64.8245 85.1557 64.9947 85.2176 65.1655 85.2778C65.3363 85.338 65.5082 85.3965 65.6801 85.4534C65.8521 85.5103 66.0251 85.5656 66.1981 85.6197C66.3565 85.6688 66.5279 85.7108 66.7026 85.7534C66.8774 85.7959 67.056 85.8395 67.2302 85.892C67.4044 85.9445 67.5735 86.0063 67.7296 86.0853C67.8857 86.1643 68.0283 86.2604 68.1495 86.3825C68.3778 86.6122 68.5086 86.8912 68.5559 87.1795C68.6033 87.4678 68.5661 87.7666 68.459 88.0362C68.3513 88.3057 68.1732 88.5471 67.9376 88.7205C67.702 88.894 67.4089 89 67.0718 89H67.0724Z" fill="#000D40"/>
</svg>
