<svg viewBox="0 0 117 117" fill="none" xmlns="http://www.w3.org/2000/svg">
<path d="M111.435 117H5.56536C2.49282 117 0 114.507 0 111.435V5.56536C0 2.49282 2.49282 0 5.56536 0H111.435C114.507 0 117 2.49282 117 5.56536V111.435C117 114.507 114.507 117 111.435 117ZM5.56536 3.71024C4.54504 3.71024 3.71024 4.54504 3.71024 5.56536V111.435C3.71024 112.455 4.54504 113.29 5.56536 113.29H111.435C112.455 113.29 113.29 112.455 113.29 111.435V5.56536C113.29 4.54504 112.455 3.71024 111.435 3.71024H5.56536Z" fill="#000D40"/>
<path d="M79.5989 47.4901C84.0848 47.4901 87.7326 43.8589 87.7326 39.3644C87.7326 34.8799 84.0821 31.2514 79.5989 31.2514C75.1184 31.2514 71.4652 34.8645 71.4652 39.3644C71.4652 43.8589 75.113 47.4901 79.5989 47.4901ZM96 23.6253V55.0909C96 55.432 95.7248 55.7162 95.3658 55.7162H63.8065C63.454 55.7162 63.1724 55.4258 63.1724 55.0909V23.6253C63.1724 23.2904 63.454 23 63.8065 23H95.3658C95.7183 23 96 23.2904 96 23.6253Z" fill="#29B57D" stroke="#000D40" stroke-width="4"/>
<path d="M21 39.3644C21 30.342 28.3443 23.0127 37.4138 23.0127C46.481 23.0127 53.8163 30.3402 53.8276 39.3669C53.8263 48.3883 46.4825 55.7162 37.4138 55.7162C28.3443 55.7162 21 48.3869 21 39.3644Z" fill="#29B57D" stroke="#000D40" stroke-width="4"/>
<path d="M21.6342 65.2839H53.1935C53.5283 65.2839 53.8214 65.5592 53.8276 65.921V81.6357C53.8276 90.6582 46.4833 97.9874 37.4138 97.9874C28.3443 97.9874 21 90.6582 21 81.6357V65.9092C21 65.5744 21.2817 65.2839 21.6342 65.2839Z" fill="#29B57D" stroke="#000D40" stroke-width="4"/>
<path d="M96 81.6481V81.7115V97.3746C96 97.7095 95.7183 97.9999 95.3658 97.9999H79.5862C70.5167 97.9999 63.1724 90.6706 63.1724 81.6481C63.1724 72.6257 70.5167 65.2964 79.5862 65.2964C88.6557 65.2964 96 72.6257 96 81.6481Z" fill="#29B57D" stroke="#000D40" stroke-width="4"/>
</svg>
