<?xml version="1.0" encoding="utf-8"?>
<!-- Generator: Adobe Illustrator 26.3.1, SVG Export Plug-In . SVG Version: 6.00 Build 0)  -->
<svg version="1.1" id="Layer_1" xmlns="http://www.w3.org/2000/svg" xmlns:xlink="http://www.w3.org/1999/xlink" x="0px" y="0px"
	 viewBox="0 0 1927.3 381.9" style="enable-background:new 0 0 1927.3 381.9;" xml:space="preserve">
<style type="text/css">
	.st0{fill:#2459D1;}
	.st1{fill:#29B57D;}
	.st2{fill:#F7C22E;}
	.st3{fill:#ED475C;}
	.st4{fill:#FFFFFF;}
</style>
<g>
	<g>
		<path class="st0" d="M323.5,88.8c0,16.3-13.2,29.6-29.6,29.6c-16.3,0-29.6-13.2-29.6-29.6c0-16.3,13.2-29.6,29.6-29.6
			C310.2,59.2,323.5,72.5,323.5,88.8 M382.6,164.8V12.7c0-7-5.7-12.7-12.7-12.7h-152c-7,0-12.7,5.7-12.7,12.7v152.1
			c0,7,5.7,12.7,12.7,12.7h152C376.9,177.5,382.6,171.8,382.6,164.8"/>
		<path class="st1" d="M90.6,0.1c-49,0-88.7,39.7-88.7,88.7c0,49,39.7,88.7,88.7,88.7c49,0,88.7-39.7,88.7-88.7
			C179.3,39.8,139.6,0.1,90.6,0.1"/>
		<path class="st2" d="M166.7,204.5h-76h-76c-7,0-12.7,5.7-12.7,12.7v76.1v0c0,49,39.7,88.7,88.7,88.7s88.7-39.7,88.7-88.7v0v-76.1
			C179.3,210.1,173.7,204.5,166.7,204.5"/>
		<path class="st3" d="M382.6,293.5c0-0.1,0-0.2,0-0.3c0-49-39.7-88.7-88.7-88.7s-88.7,39.7-88.7,88.7c0,49,39.7,88.8,88.7,88.8
			c0.1,0,0.2,0,0.3,0v0h75.7c7,0,12.7-5.7,12.7-12.7L382.6,293.5L382.6,293.5z"/>
	</g>
	<path class="st4" d="M1029.4,259.1c0,36-31.3,53.3-67,53.3c-32.4,0-56.6-13.2-69-37.5c-0.6-1.2-0.2-2.6,1-3.3l32.9-18.5
		c1.3-0.7,2.9-0.2,3.4,1.2c5.2,12.1,16.1,19.1,31.7,19.1c13.7,0,23-4.7,23-14.3c0-24.3-86-11-86-69.7c0-34,29-53,63.3-53
		c26.1,0,48.8,11.5,62,33.1c0.7,1.2,0.3,2.8-0.9,3.4l-32.2,17.6c-1.2,0.6-2.6,0.2-3.3-0.9c-5.2-9.4-14.1-14.9-25.6-14.9
		c-10.7,0-19.3,4.7-19.3,13.7C943.4,213.1,1029.4,197.7,1029.4,259.1z"/>
	<path class="st4" d="M1058.9,64.4h38.1c1.4,0,2.4,1.1,2.4,2.4v238.5c0,1.4-1.1,2.4-2.4,2.4h-38.1c-1.4,0-2.4-1.1-2.4-2.4V66.8
		C1056.4,65.5,1057.5,64.4,1058.9,64.4z"/>
	<path class="st4" d="M1124.6,94.7c0-14.3,12-26.7,26.3-26.7c14.7,0,26.7,12.3,26.7,26.7c0,14.3-12,26.3-26.7,26.3
		C1136.6,121.1,1124.6,109.1,1124.6,94.7z M1132,141.1h38.1c1.4,0,2.4,1.1,2.4,2.4v161.8c0,1.4-1.1,2.4-2.4,2.4H1132
		c-1.4,0-2.4-1.1-2.4-2.4V143.5C1129.6,142.2,1130.7,141.1,1132,141.1z"/>
	<path class="st4" d="M639.1,223.6l65.8-80.4c1.3-1.6,0.2-4-1.9-4h-42.5c-1.5,0-2.9,0.7-3.8,1.8l-57.5,71.7
		c-0.7,0.9-1.1,1.9-1.1,3.1v15.5c0,1.1,0.4,2.2,1.1,3.1l57.5,71.7c0.9,1.2,2.3,1.8,3.8,1.8H703c2.1,0,3.2-2.4,1.9-4L639.1,223.6z"/>
	<path class="st4" d="M789.5,136c-48.8,0-88.4,39.6-88.4,88.4c0,48.8,39.6,88.4,88.4,88.4s88.4-39.6,88.4-88.4
		C877.9,175.6,838.3,136,789.5,136 M789.5,268c-24.1,0-43.6-19.5-43.6-43.6c0-24.1,19.5-43.6,43.6-43.6c24.1,0,43.6,19.5,43.6,43.6
		C833.1,248.5,813.6,268,789.5,268"/>
	<path class="st4" d="M549.2,74.1h38.1c1.4,0,2.4,1.1,2.4,2.3v228.9c0,1.3-1.1,2.3-2.4,2.3h-38.1c-1.4,0-2.4-1.1-2.4-2.3V76.4
		C546.7,75.2,547.8,74.1,549.2,74.1z"/>
	<g>
		<path class="st4" d="M1403.1,73.6v234.6h-12.1v-44.6c-13.4,28.8-41.6,48.3-76.4,48.3c-47.9,0-87.1-38.2-87.1-87.5
			s39.2-87.5,87.1-87.5c34.9,0,63,19.4,76.4,48.3V73.6H1403.1z M1391.1,224.4c0-42.9-33.2-76.1-75.7-76.1
			c-42.6,0-75.7,33.2-75.7,76.1s33.2,76.1,75.7,76.1C1357.9,300.5,1391.1,267.3,1391.1,224.4z"/>
		<path class="st4" d="M1424.2,224.4c0-49.3,38.9-87.5,87.5-87.5c48.9,0,87.8,38.2,87.8,87.5s-38.9,87.5-87.8,87.5
			C1463.1,311.9,1424.2,273.7,1424.2,224.4z M1587.8,224.4c0-42.9-33.5-76.1-76.1-76.1c-42.6,0-75.7,33.2-75.7,76.1
			s33.2,76.1,75.7,76.1C1554.3,300.5,1587.8,267.3,1587.8,224.4z"/>
		<path class="st4" d="M1622,224.4c0-49.3,37.5-87.5,87.5-87.5c33.2,0,61,16.8,73.4,41.9l-9.7,5.7c-10.7-21.8-34.5-36.2-63.7-36.2
			c-43.2,0-75.7,33.2-75.7,76.1s32.5,76.1,75.7,76.1c28.8,0,52.6-14.4,64-36.2l9.7,5.7c-12.7,25.5-40.9,41.9-73.7,41.9
			C1659.5,311.9,1622,273.7,1622,224.4z"/>
		<path class="st4" d="M1927.3,264.3c0,26.8-24.1,47.6-59.3,47.6c-33.9,0-55-14.4-63-36.5l9.7-5.7c6.7,19.8,25.1,30.8,53.3,30.8
			c26.5,0,47.3-13.7,47.3-36.2c0-49.6-105.2-20.4-105.2-80.1c0-26.1,22.1-47.3,56.6-47.3c26.8,0,46.9,13.1,55.3,32.8l-9.7,5.7
			c-7-17.4-24.5-27.1-45.6-27.1c-25.8,0-44.6,14.1-44.6,35.9C1822.1,232.8,1927.3,204,1927.3,264.3z"/>
	</g>
</g>
</svg>
