<?xml version="1.0" encoding="utf-8"?>
<!-- Generator: Adobe Illustrator 25.2.3, SVG Export Plug-In . SVG Version: 6.00 Build 0)  -->
<svg version="1.1" id="Layer_1" xmlns="http://www.w3.org/2000/svg" xmlns:xlink="http://www.w3.org/1999/xlink" x="0px" y="0px"
	 viewBox="0 0 1920 311.8" style="enable-background:new 0 0 1920 311.8;" xml:space="preserve">
<style type="text/css">
	.st0{fill:#FFFFFF;}
	.st1{enable-background:new    ;}
</style>
<g>
	<path class="st0" d="M586.6,0.2v221.4h34.1v-73.4l59.3,73.4h42.2l-68.6-82.9l66.9-82h-41l-58.6,70.3V0.2H586.6L586.6,0.2z"/>
	<path class="st0" d="M242.9,126.1c0,0,0-1.2,0-1.8c0-37.2-30.1-67.2-67.2-67.2c-18,0-34.3,7.1-46.3,18.7
		C117.3,64.3,101.1,57.1,83,57.1c-19.1,0-36.2,8-48.4,20.7V56.7H0v164.8h34.3c0,0,0-97.2,0-97.4c0-19.2,15.5-34.8,34.8-34.8
		c19.2,0,34.8,15.5,34.8,34.8c0,0.1,0,0.3,0,0.3v98.1h34.8v-42.4h0.1v-55.8c0,0,0-0.2,0-0.3c0-19.2,15.5-34.8,34.8-34.8
		s34.8,15.5,34.8,34.8c0,0.1,0,97.4,0,97.4H243L242.9,126.1L242.9,126.1z"/>
	<path class="st0" d="M547,92.4l25.6-30.3c-7.9-3.2-16.5-5-25.6-5c-19.1,0-36.2,8-48.4,20.7V56.7H464v164.8h34.3v-97l0,0
		c0-0.1,0-0.2,0-0.3c0-19.2,15.5-34.8,34.8-34.8C538,89.5,542.7,90.5,547,92.4"/>
	<rect x="905.6" y="0.2" class="st0" width="34.1" height="221.4"/>
	<path class="st0" d="M1111.1,59.6c-17.1-7.1-36.7,0.9-43.8,18c-4.8,11.5-2.8,24.1,4.3,33.4l-27.4,72.7l-29.6-72.7
		c7.1-9.2,9.2-21.6,4.4-33.1c-7.1-17.1-26.5-25.3-43.8-18.3c-17.2,7.1-25.3,26.5-18.3,43.8c4.6,11.2,14.5,18.6,25.6,20.4l31.8,76.6
		c-1.1,1.6-1.9,3.4-2.8,5.1c-5.2,12.6-2.2,26.5,6.4,35.8l-30.6,70.5h39.8l25.2-61.4c9.2-2.8,17-9.5,20.9-19.1
		c4-9.6,3.2-20.3-1.4-28.8l32.4-79c10.6-2.1,20-9.2,24.5-20C1136.3,86.4,1128.2,66.7,1111.1,59.6z"/>
	<path class="st0" d="M435.7,149.8c0.4-3.4,0.6-6.8,0.6-10.1c0-45.7-37-82.9-82.9-82.9s-82.9,37-82.9,82.9s37,82.9,82.9,82.9
		c36.2,0,66.9-23.1,78.2-55.5h-38.9c0,0.1-0.1,0.1-0.1,0.2c-8.6,12.5-22.9,20.7-39.1,20.7c-16.5,0-31.1-8.4-39.6-21.3
		c-3.4-5-5.9-10.7-7.3-16.8h93.7L435.7,149.8z M307.6,126.1c0.6-1.9,9.9-34.7,45.8-34.7c35.9,0,45.3,32.8,45.8,34.7H307.6z"/>
	<path class="st0" d="M877.9,149.8c0.4-3.4,0.6-6.8,0.6-10.1c0-45.7-37-82.9-82.9-82.9s-82.9,37-82.9,82.9s37,82.9,82.9,82.9
		c36.2,0,66.9-23.1,78.2-55.5h-38.9c0,0.1-0.1,0.1-0.1,0.2c-8.6,12.5-22.9,20.7-39.1,20.7c-16.5,0-31.1-8.4-39.6-21.3
		c-3.4-5-5.9-10.7-7.3-16.8h93.8L877.9,149.8z M749.8,126.1c0.6-1.9,9.9-34.7,45.8-34.7c35.9,0,45.3,32.8,45.8,34.7H749.8z"/>
</g>
<g class="st1">
	<path class="st0" d="M1376.1,169.8c-9,16.6-22.2,29.4-39.7,38.3c-17.5,8.9-38.5,13.3-63.2,13.3h-66.8V0.3h66.8
		c37.2,0,65.9,9.8,86.1,29.3c20.2,19.6,30.3,46.6,30.3,81.1C1389.6,133.5,1385.1,153.2,1376.1,169.8z M1342.9,177.7
		c16.3-16,24.5-38.3,24.5-67s-8.2-51-24.5-67c-16.3-16-40.1-24-71.2-24h-43v182h43C1302.8,201.7,1326.6,193.7,1342.9,177.7z"/>
	<path class="st0" d="M1540.3,58.5c12.9,7,23,17.1,30.3,30.4c7.3,13.3,11,28.9,11,46.9c0,18-3.7,33.6-11,46.7
		c-7.3,13.2-17.4,23.3-30.3,30.4c-12.9,7.1-27.4,10.7-43.8,10.7s-31-3.5-43.9-10.7c-13-7.1-23.2-17.3-30.6-30.6
		c-7.4-13.3-11.1-28.8-11.1-46.6c0-18,3.7-33.6,11.1-46.9c7.4-13.3,17.6-23.4,30.6-30.4c13-7,27.6-10.5,43.9-10.5
		S1527.5,51.5,1540.3,58.5z M1465.2,74.6c-9.6,5-17.4,12.7-23.2,23.1c-5.9,10.3-8.8,23.1-8.8,38.1s2.9,27.7,8.8,38
		c5.9,10.3,13.6,17.9,23.2,22.9c9.6,5,20.1,7.5,31.4,7.5c11.1,0,21.4-2.5,30.9-7.5c9.5-5,17.2-12.7,23.1-22.9
		c5.9-10.2,8.8-22.9,8.8-38s-2.9-27.8-8.8-38.1c-5.9-10.4-13.5-18-23.1-23.1c-9.5-5-19.8-7.5-30.9-7.5
		C1485.3,67.1,1474.8,69.6,1465.2,74.6z"/>
	<path class="st0" d="M1745.5,65.2c14.3,11.5,23.1,26.8,26.2,45.8h-22.9c-2.3-13.6-8.7-24.3-19.1-32.2
		c-10.5-7.8-23.3-11.8-38.6-11.8c-11.1,0-21.3,2.5-30.6,7.5c-9.3,5-16.7,12.7-22.3,23.1c-5.5,10.3-8.3,23.1-8.3,38.1
		s2.8,27.8,8.3,38.1c5.5,10.4,13,18,22.3,23.1c9.3,5,19.5,7.5,30.6,7.5c15.3,0,28.1-3.9,38.6-11.8c10.5-7.8,16.8-18.6,19.1-32.2
		h22.9c-3.1,19-11.9,34.3-26.2,45.8c-14.3,11.5-32.4,17.3-54.1,17.3c-16.3,0-30.8-3.5-43.4-10.5c-12.7-7-22.5-17.1-29.6-30.4
		c-7.1-13.3-10.7-28.9-10.7-46.9c0-18,3.6-33.6,10.7-46.9c7.1-13.3,17-23.4,29.6-30.4c12.6-7,27.1-10.5,43.4-10.5
		C1713.1,48,1731.1,53.7,1745.5,65.2z"/>
	<path class="st0" d="M1897.1,62.7c11.3,9.8,18.2,23.1,20.7,39.8h-21c-1.3-11.1-5.8-20.2-13.6-27.5c-7.8-7.2-18.4-10.8-31.5-10.8
		c-11.3,0-20.1,2.8-26.5,8.3c-6.4,5.5-9.6,12.9-9.6,22.1c0,6.9,2,12.4,6.1,16.6s9.1,7.4,15.2,9.6c6.1,2.2,14.2,4.4,24.5,6.7
		c12.5,2.9,22.6,5.9,30.3,8.9c7.6,3,14.2,7.8,19.6,14.3c5.4,6.5,8.2,15.3,8.2,26.3c0,13.6-5.1,24.7-15.2,33.4
		c-10.1,8.7-23.6,13-40.3,13c-19.7,0-35.8-4.9-48.3-14.6c-12.5-9.7-20-23.1-22.3-40h21.3c1.3,11.3,6.2,20.5,14.7,27.6
		c8.6,7.1,20.2,10.7,34.8,10.7c10.9,0,19.3-2.8,25.4-8.5c6.1-5.6,9.1-13,9.1-22c0-7.3-2.1-13.2-6.3-17.6c-4.2-4.4-9.4-7.7-15.5-9.9
		c-6.2-2.2-14.6-4.5-25.3-7.1c-12.3-2.9-22.2-5.9-29.6-8.8c-7.4-2.9-13.8-7.5-19-13.6c-5.2-6.2-7.8-14.6-7.8-25.3
		c0-14,5.1-25.3,15.4-33.9c10.2-8.6,24.2-12.9,41.7-12.9C1870.9,48,1885.8,52.9,1897.1,62.7z"/>
</g>
</svg>
