<svg width="140" height="45" viewBox="0 0 140 45" fill="none" xmlns="http://www.w3.org/2000/svg">
<g clip-path="url(#clip0_1638_188315)">
<path d="M38.2894 10.4607C38.2894 12.3896 36.7122 13.9501 34.77 13.9501C32.8278 13.9501 31.2507 12.3896 31.2507 10.4607C31.2507 8.53187 32.8278 6.97865 34.77 6.97865C36.7122 6.97865 38.2894 8.53909 38.2894 10.4607ZM45.3281 19.4188V1.49542C45.3281 0.671858 44.649 0 43.8166 0H25.7088C24.8764 0 24.1974 0.671858 24.1974 1.49542V19.4188C24.1974 20.2424 24.8764 20.9143 25.7088 20.9143H43.8166C44.6563 20.9143 45.3281 20.2424 45.3281 19.4188Z" fill="#2459D1"/>
<path d="M10.5653 0.00732422C4.73141 0.00732422 0 4.68865 0 10.4608C0 16.233 4.73141 20.9144 10.5653 20.9144C16.3993 20.9144 21.1307 16.233 21.1307 10.4608C21.1234 4.68865 16.3993 0.00732422 10.5653 0.00732422Z" fill="#29B57D"/>
<path d="M19.6193 24.0859H1.51142C0.679045 24.0859 0 24.7578 0 25.5814V34.5395C0 40.3117 4.73141 44.993 10.5653 44.993C16.3993 44.993 21.1307 40.3117 21.1307 34.5395V25.5814C21.1234 24.7578 20.4517 24.0859 19.6193 24.0859Z" fill="#F7C22E"/>
<path d="M45.3281 34.5824V34.5463C45.3281 28.7741 40.5966 24.0928 34.7627 24.0928C28.9288 24.0928 24.1974 28.7741 24.1974 34.5463C24.1974 40.3185 28.9288 44.9998 34.7627 44.9998H43.8166C44.649 44.9998 45.3281 44.328 45.3281 43.5044V34.5824Z" fill="#ED475C"/>
<path d="M122.352 30.5224C122.352 34.763 118.621 36.8075 114.372 36.8075C110.516 36.8075 107.632 35.2471 106.157 32.3862C106.084 32.249 106.135 32.0756 106.274 32.0034L110.188 29.8288C110.341 29.7422 110.531 29.8072 110.597 29.9661C111.21 31.3893 112.51 32.2201 114.372 32.2201C116 32.2201 117.11 31.671 117.11 30.5296C117.11 27.6616 106.866 29.2365 106.866 22.3228C106.866 18.3134 110.319 16.0811 114.408 16.0811C117.519 16.0811 120.22 17.4392 121.797 19.9822C121.885 20.1194 121.834 20.3073 121.688 20.3867L117.847 22.4601C117.708 22.5323 117.533 22.489 117.453 22.3517C116.832 21.2464 115.773 20.6035 114.408 20.6035C113.138 20.6035 112.108 21.1525 112.108 22.2145C112.115 25.1042 122.352 23.2981 122.352 30.5224Z" fill="#000D40"/>
<path d="M125.857 7.58545H130.398C130.559 7.58545 130.691 7.71549 130.691 7.87442V35.9696C130.691 36.1286 130.559 36.2586 130.398 36.2586H125.857C125.696 36.2586 125.565 36.1286 125.565 35.9696V7.87442C125.572 7.71549 125.696 7.58545 125.857 7.58545Z" fill="#000D40"/>
<path d="M133.691 11.1616C133.691 9.47112 135.123 8.01904 136.824 8.01904C138.525 8.01904 140 9.47112 140 11.1616C140 12.8521 138.569 14.2608 136.824 14.2608C135.079 14.2608 133.691 12.8521 133.691 11.1616ZM134.575 16.6232H139.117C139.277 16.6232 139.409 16.7532 139.409 16.9121V35.9698C139.409 36.1287 139.277 36.2587 139.117 36.2587H134.575C134.414 36.2587 134.283 36.1287 134.283 35.9698V16.9121C134.283 16.746 134.414 16.6232 134.575 16.6232Z" fill="#000D40"/>
<path d="M75.8777 26.3395L83.7123 16.8685C83.8657 16.6807 83.7342 16.3989 83.486 16.3989H78.426C78.2508 16.3989 78.0828 16.4784 77.9733 16.6157L71.1244 25.0681C71.0441 25.1692 70.993 25.2992 70.993 25.4293V27.257C70.993 27.387 71.0368 27.5171 71.1244 27.6182L77.9733 36.0706C78.0828 36.2079 78.2508 36.2873 78.426 36.2873H83.486C83.7342 36.2873 83.8657 36.0056 83.7123 35.8178L75.8777 26.3395Z" fill="#000D40"/>
<path d="M93.7812 16.0234C87.9691 16.0234 83.2596 20.6903 83.2596 26.4408C83.2596 32.1914 87.9691 36.8582 93.7812 36.8582C99.5932 36.8582 104.303 32.1986 104.303 26.4408C104.31 20.6831 99.5932 16.0234 93.7812 16.0234ZM93.7812 31.5773C90.9117 31.5773 88.5898 29.28 88.5898 26.4408C88.5898 23.6017 90.9117 21.3044 93.7812 21.3044C96.6507 21.3044 98.9726 23.6017 98.9726 26.4408C98.9726 29.28 96.6507 31.5773 93.7812 31.5773Z" fill="#000D40"/>
<path d="M65.1664 8.73438H69.708C69.8686 8.73438 70 8.85719 70 9.0089V35.9843C70 36.136 69.8686 36.2589 69.708 36.2589H65.1664C65.0058 36.2589 64.8743 36.136 64.8743 35.9843V9.0089C64.8743 8.85719 65.0058 8.73438 65.1664 8.73438Z" fill="#000D40"/>
</g>
<defs>
<clipPath id="clip0_1638_188315">
<rect width="140" height="45" fill="white"/>
</clipPath>
</defs>
</svg>
