<svg width="20" height="20" viewBox="0 0 20 20" fill="none" xmlns="http://www.w3.org/2000/svg">
<path fill-rule="evenodd" clip-rule="evenodd" d="M10 20C15.5228 20 20 15.5228 20 10C20 4.47715 15.5228 0 10 0C4.47715 0 0 4.47715 0 10C0 15.5228 4.47715 20 10 20ZM9.38 5.89C9.55733 6.06733 9.856 6.156 10.276 6.156C10.696 6.156 10.99 6.06733 11.158 5.89C11.3353 5.71267 11.424 5.498 11.424 5.246V4.91C11.424 4.658 11.3353 4.44333 11.158 4.266C10.99 4.08867 10.696 4 10.276 4C9.856 4 9.55733 4.08867 9.38 4.266C9.212 4.44333 9.128 4.658 9.128 4.91V5.246C9.128 5.498 9.212 5.71267 9.38 5.89ZM9.38 13.086H7V14.5H13.384V13.086H11.172V7.276H7V8.69H9.38V13.086Z" fill="#2459D1"/>
</svg>
