<svg width="14" height="14" viewBox="0 0 14 14" fill="none" xmlns="http://www.w3.org/2000/svg">
<g opacity="1">
<path fill-rule="evenodd" clip-rule="evenodd" d="M8.12903 0H2.70968C1.21316 0 0 1.21316 0 2.70968V8.12903C0 9.47168 0.976517 10.5862 2.25806 10.8012V9.40678C1.73185 9.22079 1.35484 8.71894 1.35484 8.12903V2.70968C1.35484 1.96142 1.96142 1.35484 2.70968 1.35484H8.12903C8.71903 1.35484 9.22094 1.73196 9.40686 2.2583H10.8013C10.5864 0.976637 9.47176 0 8.12903 0Z" fill="#2459D1"/>
<path fill-rule="evenodd" clip-rule="evenodd" d="M5.87105 3.16113H10.657C10.9223 3.16113 11.1766 3.26649 11.3641 3.45403L13.7072 5.79708C13.8947 5.98461 14.0001 6.23897 14.0001 6.50418V11.2902C14.0001 12.7867 12.7869 13.9998 11.2904 13.9998H5.87105C4.37454 13.9998 3.16138 12.7867 3.16138 11.2902V5.87081C3.16138 4.3743 4.37454 3.16113 5.87105 3.16113ZM10.3872 5.4192C10.3872 5.38907 10.3842 4.84567 10.384 4.45603C10.384 4.29274 10.5488 4.22601 10.6643 4.34147L12.8197 6.49692C12.9352 6.61239 12.8685 6.77727 12.7052 6.77722C12.3156 6.77711 11.7721 6.77419 11.742 6.77419H11.245C10.7712 6.77419 10.3872 6.39012 10.3872 5.91636V5.4192Z" fill="#2459D1"/>
</g>
</svg>
